<svg xmlns="http://www.w3.org/2000/svg" viewBox="0 0 24 24" fill="none">
  <path fill-rule="evenodd" clip-rule="evenodd" d="M12 2.75C6.89137 2.75 2.75 6.89137 2.75 12C2.75 17.1086 6.89137 21.25 12 21.25C17.1086 21.25 21.25 17.1086 21.25 12C21.25 6.89137 17.1086 2.75 12 2.75ZM1.25 12C1.25 6.06294 6.06294 1.25 12 1.25C17.9371 1.25 22.75 6.06294 22.75 12C22.75 17.9371 17.9371 22.75 12 22.75C6.06294 22.75 1.25 17.9371 1.25 12Z" fill="#444444"/>
  <path fill-rule="evenodd" clip-rule="evenodd" d="M12.5303 7.46967C12.8232 7.76256 12.8232 8.23744 12.5303 8.53033L9.06066 12L12.5303 15.4697C12.8232 15.7626 12.8232 16.2374 12.5303 16.5303C12.2374 16.8232 11.7626 16.8232 11.4697 16.5303L7.46967 12.5303C7.17678 12.2374 7.17678 11.7626 7.46967 11.4697L11.4697 7.46967C11.7626 7.17678 12.2374 7.17678 12.5303 7.46967Z" fill="#444444"/>
  <path fill-rule="evenodd" clip-rule="evenodd" d="M7.25 12C7.25 11.5858 7.58579 11.25 8 11.25H16C16.4142 11.25 16.75 11.5858 16.75 12C16.75 12.4142 16.4142 12.75 16 12.75H8C7.58579 12.75 7.25 12.4142 7.25 12Z" fill="#444444"/>
</svg>