<svg width="92" height="47" viewBox="0 0 92 47" fill="none" xmlns="http://www.w3.org/2000/svg">
<path d="M92 0.658936H0.229492V47.0071H92V0.658936Z" fill="white"/>
<path d="M45.4692 1.9187H1.50122V45.7434H45.4692V1.9187Z" fill="#D71921"/>
<path d="M90.7244 1.9187H46.7563V45.7434H90.7244V1.9187Z" fill="#0090CB"/>
<path d="M58.7771 27.4087V28.6801L60.2199 27.4087H58.7771Z" fill="white"/>
<path d="M70.506 33.3743C70.0355 33.3743 68.931 33.1882 68.931 32.0835C68.931 31.2579 69.9266 30.9245 70.7549 30.8509C71.3344 30.8005 72.9016 30.6687 72.9016 30.6687V32.475C72.4777 33.0603 71.4899 33.3782 70.506 33.3782M74.1111 29.4671C74.1111 28.2926 73.0766 27.2498 70.8988 27.2498C69.5144 27.2498 68.1571 28.0135 68.1571 28.0135L68.6899 28.9244C68.6899 28.9244 69.5844 28.3352 70.8949 28.3352C72.7344 28.3352 72.8938 29.1725 72.8977 29.564V29.6686C72.8977 29.6686 71.5016 29.7927 70.6771 29.8663C69.351 29.9826 67.6399 30.5912 67.6399 32.2347C67.6399 33.665 69.0321 34.4054 70.576 34.4054C71.7855 34.4054 72.9405 33.7929 72.9405 33.7929V34.2426H74.1149V29.4632L74.1111 29.4671ZM82.165 33.3743C81.6944 33.3743 80.59 33.1882 80.59 32.0835C80.59 31.2579 81.5855 30.9245 82.4139 30.8509C82.9933 30.8005 84.5644 30.6687 84.5644 30.6687V32.475C84.1406 33.0603 83.1528 33.3782 82.165 33.3782M85.77 29.4671C85.77 28.467 84.9261 27.2498 82.5616 27.2498C82.5616 27.2498 82.5616 27.2498 82.5578 27.2498C81.1305 27.2498 79.8122 28.0135 79.8122 28.0135L80.345 28.9244C80.345 28.9244 81.2394 28.3352 82.55 28.3352C84.3856 28.3352 84.545 29.1725 84.5489 29.564V29.6686C84.5489 29.6686 83.1528 29.7888 82.3283 29.8663C81.1422 29.9748 80.3878 30.3353 79.925 30.7811C79.4622 31.2269 79.295 31.7579 79.295 32.2192V32.2347C79.295 33.6728 80.6833 34.4054 82.2311 34.4054C83.4405 34.4054 84.5917 33.7929 84.5917 33.7929V34.2426H85.7661V29.4632L85.77 29.4671ZM77.3622 33.258C76.7516 33.258 76.5766 32.7774 76.5766 32.2851V28.5135H78.6766V27.3894H76.5766V25.1799H75.3283V32.537C75.3283 33.2348 75.6666 34.4093 77.1833 34.4093C77.7472 34.4093 78.3577 34.2968 78.7505 34.1185L78.4005 33.0099C77.9339 33.196 77.5994 33.2541 77.3661 33.2541M63.9999 27.1491C62.8488 27.1491 61.7677 27.7964 61.4215 28.4398V27.3933H60.2276V34.2426H61.5499V29.9981C61.5499 28.7848 62.8682 28.1801 63.7043 28.1801C65.1393 28.1801 65.4349 29.1259 65.4349 30.2462V34.2426H66.6988V30.0989C66.6988 27.7189 65.3688 27.1452 63.9999 27.1452M57.5404 27.3933H55.0632C53.3715 27.3933 51.7109 28.6724 51.7109 30.8509C51.7109 33.0293 53.3171 34.4131 55.2537 34.4131C57.3693 34.4131 58.7849 32.7308 58.7849 30.7927V28.7616H57.5443V30.7927C57.5443 31.8897 56.7432 33.2348 55.2576 33.2348C53.9976 33.2348 52.9709 32.1649 52.967 30.8509C52.967 29.9012 53.6282 28.5561 55.3743 28.5561H57.4665L58.7849 27.3933V25.1838H57.5443V27.3933H57.5404Z" fill="white"/>
<path d="M22.6606 26.56L24.1151 27.8236H25.0834C26.0673 27.8236 26.9773 27.4089 27.5684 26.8119C28.1634 26.2189 28.3929 25.4204 28.3929 24.6722V22.6101C28.3929 21.924 27.9573 21.5131 27.8329 21.3968C27.7629 21.3232 27.3507 20.9355 27.3507 20.9355V22.5171C27.3507 22.5171 27.8096 22.99 27.9029 23.0869C28.3307 23.5404 28.3229 24.3738 26.9657 25.6917C26.7207 25.9204 26.044 26.5561 25.1029 26.5561H22.6645L22.6606 26.56Z" fill="white"/>
<path d="M28.5563 19.2417C28.5563 19.2417 28.9724 19.7184 29.1319 19.8425C29.6802 20.2766 29.9252 19.7805 29.5713 19.2223C29.4896 19.0866 29.1474 18.8618 28.5563 19.2417ZM26.6974 18.0866C26.5341 18.2571 26.3902 18.6719 26.3902 19.044V19.8192H27.1719C27.4869 19.8192 27.7669 19.5944 27.9846 19.3928C27.9924 19.3851 27.9846 18.6137 27.9846 18.6137C27.9846 18.6137 28.1869 18.8463 28.3735 19.0362C28.6302 18.792 29.3224 18.0749 29.8241 18.0749C30.8352 18.0749 30.6019 19.3386 30.1897 19.7456C30.0574 19.8774 29.4585 20.4239 29.2758 20.6022C28.7974 21.0519 27.9807 20.8387 27.9807 19.6719C27.9807 19.6719 27.0941 20.4976 26.9657 20.61C26.8413 20.7263 26.3863 21.203 26.3863 21.203V23.2613C26.3863 24.2498 26.0713 24.5986 25.7874 24.8738C25.6357 25.0018 24.5741 25.9592 24.3952 26.1297H24.0102C24.0102 26.1297 24.6946 25.5328 24.8385 25.3933C24.9785 25.2421 25.1418 24.932 25.1418 24.4126C25.1418 24.2769 25.1263 21.1759 25.1263 21.1759H20.0474C18.2935 21.1759 17.9124 19.2107 17.9046 18.6912C17.9046 18.5401 17.9046 16.9818 17.9046 16.7337C17.9046 16.412 17.6985 15.8732 17.3679 15.7065H17.8657C17.924 15.7298 18.239 15.8616 18.239 17.0555C18.239 17.0555 18.2157 18.4509 18.2157 18.5246C18.2157 19.1293 18.6979 19.8231 19.3979 19.8231C19.5302 19.8231 25.1341 19.8154 25.1341 19.8154C25.1341 19.6681 25.313 19.0789 25.5735 18.7688C25.7407 18.5943 26.9735 17.4741 27.1057 17.3617H27.4791C27.4285 17.4082 26.8374 17.9393 26.6935 18.0827" fill="white"/>
<path d="M22.4234 22.959C22.4234 23.2342 21.529 23.9668 21.4823 24.0133C21.4201 23.7226 21.1984 23.3854 20.5256 22.7342L21.4979 21.7612C22.1434 22.4202 22.4195 22.552 22.4195 22.959" fill="white"/>
<path d="M20.728 17.2647C20.4558 17.54 20.413 17.6097 20.1641 17.757H23.2169C24.0219 17.757 23.8664 17.2492 23.6992 16.9934C23.4153 16.4662 22.4586 15.4894 22.4586 15.4894C22.4586 15.4894 20.7942 17.2027 20.7358 17.2647M24.0958 11.8651C24.3058 12.059 24.7142 12.5861 24.4653 12.8381C24.2553 13.059 23.9053 13.4118 23.9053 13.4118C23.8897 13.2838 23.5553 12.9776 23.5553 12.9776C23.5553 12.9776 23.5553 13.9157 23.5553 14.0281C23.5475 14.4506 23.3958 14.5708 23.3958 14.5708C23.3958 14.5708 24.1581 15.3421 24.1581 16.3383C24.1581 16.8228 24.1619 17.2686 24.1619 17.3616C24.1619 17.5671 24.1114 17.7221 23.9792 17.8811C23.9092 17.9547 23.1664 18.6796 23.0692 18.7803C22.8708 18.9703 22.6336 19.0013 22.4819 19.0013H19.7947C19.3669 19.0013 18.9236 18.6679 18.9236 18.3385C18.9236 18.2571 18.9275 17.3423 18.9275 17.3423C19.0636 17.5012 19.2114 17.6872 19.538 17.6834C19.818 17.6795 20.0825 17.4702 20.1641 17.3965C20.2458 17.3229 22.2136 15.2801 22.2136 15.2801C22.2136 15.2801 21.2919 14.4273 20.6814 14.0281C20.3897 13.8304 19.993 14.0785 19.9347 14.3382C19.7558 15.1483 19.9347 16.3693 19.9347 16.3693C19.9347 16.3693 19.3436 15.7724 19.1958 15.629C18.8886 15.3305 18.9041 14.6522 19.2658 14.2994C19.3241 14.2413 19.8608 13.6327 20.5414 13.6327H21.6147C22.3536 13.6327 23.1158 14.3343 23.1158 14.3343C23.1158 14.3343 23.2558 14.2103 23.2558 14.0862C23.2558 13.718 23.2519 12.7334 23.2519 12.7334C22.7036 12.1907 22.6142 11.6326 22.8903 11.3729C23.3764 10.8883 23.5436 10.7178 23.5436 10.7178C23.5436 10.7178 23.5358 11.3031 24.0997 11.8651" fill="white"/>
<path d="M17.2668 20.0168H16.7651C16.7651 20.0168 17.3018 20.3075 17.3018 21.0634V23.4821C17.3018 25.0559 18.6007 26.5017 20.1835 26.5017H21.4979C22.3029 26.5017 22.5635 26.3157 23.0457 25.8854C23.2363 25.7342 23.4502 25.4823 23.5318 25.3854C23.8196 25.0753 24.0957 24.8272 24.0957 24.0209V23.2341C24.0957 22.548 23.6952 22.2611 23.5085 22.0712C23.3957 21.9588 23.0496 21.6215 23.0496 21.6215V23.2457C23.0496 23.2457 23.3918 23.5907 23.5318 23.7147C24.2202 24.2535 23.6641 25.1877 23.0341 25.1877C22.9135 25.1877 20.3235 25.1877 20.1368 25.1877C19.0207 25.1877 17.6324 24.269 17.6324 22.6798V21.358C17.6324 20.009 17.2668 20.009 17.2668 20.009" fill="white"/>
<path d="M20.4403 22.9589C20.4403 23.238 19.5458 23.9667 19.4953 24.0171C19.4369 23.7264 19.2153 23.3892 18.5464 22.7341L19.5147 21.765C20.1719 22.424 20.4403 22.5558 20.4403 22.9589Z" fill="white"/>
<path d="M19.0675 33.3628V30.5331C19.0675 29.4323 18.1692 29.1493 17.5003 29.1493C16.6214 29.1493 16.3492 29.8858 16.2403 30.1261C16.038 29.4439 15.3497 29.1377 14.7742 29.1377C13.7086 29.1377 13.4364 30.1416 13.4364 30.1416C13.4364 30.1416 13.4091 29.1726 12.5497 29.1726H11.7058C11.7058 29.1726 12.188 29.3703 12.188 30.2075V33.3589C12.188 34.3939 12.6119 34.4016 12.6119 34.4016H14.008C13.9691 34.3939 13.4714 34.0256 13.4714 33.3512V30.5603C13.4908 30.4362 13.6969 30.0176 14.3036 30.0176C14.6303 30.0176 14.9997 30.3703 14.9919 30.758V33.3589C14.9919 34.4016 15.408 34.4016 15.408 34.4016H16.8081C16.8081 34.4016 16.2714 34.0411 16.2714 33.3512V30.5603C16.3219 30.4052 16.5047 30.0254 17.0375 30.0254C17.4497 30.0254 17.7958 30.382 17.7881 30.7657C17.7881 30.7657 17.7842 33.1302 17.7842 33.3628C17.7919 34.4094 18.2081 34.4016 18.2081 34.4016C18.9314 34.4016 19.6042 34.4016 19.6042 34.4016C19.6042 34.4016 19.0636 34.045 19.0636 33.3589" fill="white"/>
<path d="M21.5057 33.3589C21.5057 34.0528 22.0423 34.4016 22.0423 34.4016H20.6501C20.6501 34.4016 20.2456 34.4016 20.2456 33.3667V30.1998C20.2456 29.378 19.7634 29.1687 19.7634 29.1687H20.584C20.8912 29.1687 21.5057 29.1687 21.5057 30.3432V33.3512H21.5095L21.5057 33.3589Z" fill="white"/>
<path d="M25.8069 29.5563C25.8069 29.5563 25.6475 29.1881 25.0758 29.1881C24.193 29.1881 23.9908 30.2114 23.9908 30.2114C23.9208 29.4012 23.6836 29.1648 23.0847 29.1648H22.2603C22.2603 29.1648 22.7541 29.3625 22.7541 30.1998V33.3589C22.7541 34.39 23.1469 34.4016 23.1469 34.4016H24.5392C24.5042 34.39 24.0064 34.0217 24.0064 33.3473V30.7618C24.0375 30.5331 24.1503 30.3587 24.3603 30.2308C24.8192 29.9439 25.4414 30.0137 25.8069 30.4478V29.5524V29.5563Z" fill="white"/>
<path d="M32.274 29.7579C32.7485 29.7579 33.0985 29.9595 33.0985 29.9595V29.1726H31.9357V27.9749C31.9357 27.9749 31.6362 28.5059 31.0023 29.0059C30.6057 29.3393 29.7734 29.7424 29.7734 29.7424L30.6601 29.7579V33.4055C30.6601 34.4055 31.084 34.4055 31.084 34.4055C31.8501 34.4055 32.4646 34.4055 32.4646 34.4055C32.4646 34.4055 31.9318 34.0567 31.9318 33.3977V29.7618H32.274V29.7579Z" fill="white"/>
<path d="M35.6459 31.006C35.8714 30.5758 36.0581 29.4943 35.2686 29.5524C34.3625 29.6261 34.5336 32.041 34.5336 32.041C34.8331 31.7154 35.292 31.6495 35.6459 31.0021M36.5053 31.3355C35.7236 32.1573 35.1053 32.0177 34.6308 32.6147C34.6308 32.6147 34.7047 33.4325 35.3114 33.7078C35.5214 33.8008 36.3886 34.0876 36.9447 33.1108V34.0411C36.9447 34.0411 36.587 34.4094 35.4436 34.4094C34.0903 34.4094 33.1492 33.355 33.1492 31.8937C33.1492 30.4323 33.9153 29.1532 35.3464 29.1454C36.7659 29.1377 37.532 30.2695 36.5053 31.3316" fill="white"/>
<path d="M20.8641 28.7384C21.2297 28.7384 21.5097 28.4632 21.5097 28.1143C21.5097 27.7655 21.2297 27.4786 20.8641 27.4786C20.4986 27.4786 20.2302 27.7539 20.2302 28.1143C20.2302 28.4748 20.4947 28.7384 20.8641 28.7384Z" fill="white"/>
<path d="M39.5658 32.9867C39.5775 33.3627 39.2469 33.8395 38.5391 33.8395C37.8314 33.8395 37.5358 33.0991 37.5358 33.0991V34.045C37.5358 34.045 38.0452 34.4016 38.8464 34.4016C39.8069 34.4016 40.7519 33.6883 40.7208 32.696C40.713 32.3355 40.5925 32.0254 40.4019 31.7696C40.0753 31.3432 39.488 31.037 39.0253 30.7579C38.3953 30.4052 38.4808 29.6183 39.4064 29.6997C40.0947 29.754 40.3941 30.4207 40.3941 30.4207V29.5369C40.3941 29.5369 39.8575 29.1299 39.0486 29.1299C38.2397 29.1299 37.4697 29.6764 37.4891 30.3819C37.5047 31.0021 37.7613 31.3975 38.2747 31.7735C38.4769 31.9208 38.718 32.0758 38.998 32.2309C39.4064 32.4479 39.558 32.7348 39.5619 32.9867" fill="white"/>
<path d="M28.1753 30.3276C28.1753 30.8315 27.7398 31.068 27.4598 31.1881C26.6159 31.5564 25.5581 31.944 25.5581 33.1456C25.5581 33.9635 26.1414 34.4093 26.9737 34.4093C27.5959 34.4093 27.9264 34.0953 28.0703 33.7813C28.1676 34.3744 28.4709 34.4015 28.4709 34.4015C29.1942 34.4015 29.8553 34.4015 29.8553 34.4015C29.8553 34.4015 29.3187 34.0449 29.3187 33.3588V30.409C29.3187 29.7035 28.5292 29.157 27.697 29.157C26.8648 29.157 26.3981 29.5291 26.3981 29.5291V30.4516C26.3981 30.4516 26.6742 29.7307 27.4092 29.7307C28.0003 29.7307 28.1792 30.0175 28.1792 30.3237M27.4287 33.8085C26.9853 33.8085 26.682 33.5798 26.682 33.0797C26.682 31.8975 27.7631 31.661 28.0509 31.3044V33.5177C28.0509 33.5177 27.8642 33.8085 27.4287 33.8085Z" fill="white"/>
<path d="M10.294 33.696C10.1306 33.696 8.9095 33.696 8.74228 33.696C8.25228 33.696 8.28728 33.3045 8.24839 32.9557V30.7229C8.24839 30.7229 8.58672 30.7152 8.96006 30.7152C9.39173 30.7152 9.93229 30.6532 10.4534 30.9594C10.4534 30.9594 10.0762 30.0485 8.95618 30.0485H8.24839V29.3391C8.24839 29.3391 8.24839 28.7189 8.10061 28.5445C8.10061 28.5445 9.04951 28.5445 9.11562 28.5445C10.0062 28.5445 10.6945 28.529 11.4101 28.9864C11.4101 28.9864 11.2701 27.8274 9.54729 27.8274H6.24561C6.24561 27.8274 6.80172 28.2848 6.80172 29.3352V33.382C6.79783 34.3899 7.20227 34.4092 7.20227 34.4092H10.5001C11.2467 34.4092 11.5112 33.9015 11.5112 33.5991L11.519 33.2037C11.519 33.2037 11.2817 33.696 10.294 33.696Z" fill="white"/>
<path d="M25.5929 12.1016C25.4179 12.2799 25.1457 12.7373 25.1457 13.3807V17.3539C25.1457 17.6795 25.029 17.9935 24.8501 18.1718C24.7374 18.2687 24.0763 18.854 24.0413 18.885H24.4263C24.5313 18.7765 25.7135 17.7415 25.8496 17.5981C26.0013 17.4159 26.3902 16.9546 26.3902 16.2298C26.3902 16.0592 26.3902 12.5667 26.3902 12.4078C26.3902 11.8341 26.6429 11.5202 26.7907 11.3651C26.9307 11.2062 27.3818 10.8224 27.4907 10.7178H27.1135C27.0124 10.8108 25.7252 11.9737 25.5929 12.0938" fill="white"/>
</svg>
