<svg width="20" height="20" viewBox="0 0 20 20" fill="none" xmlns="http://www.w3.org/2000/svg">
<path fill-rule="evenodd" clip-rule="evenodd" d="M1.03906 2.5C1.03906 2.15482 1.31888 1.875 1.66406 1.875H6.66406C7.71388 1.875 8.7207 2.29204 9.46303 3.03437C10.2054 3.7767 10.6224 4.78352 10.6224 5.83333V17.5C10.6224 17.8452 10.3426 18.125 9.9974 18.125C9.65222 18.125 9.3724 17.8452 9.3724 17.5C9.3724 17.0027 9.17485 16.5258 8.82322 16.1742C8.47159 15.8225 7.99468 15.625 7.4974 15.625H1.66406C1.31888 15.625 1.03906 15.3452 1.03906 15V2.5ZM9.3724 15V5.83333C9.3724 5.11504 9.08705 4.42616 8.57914 3.91825C8.07123 3.41034 7.38236 3.125 6.66406 3.125H2.28906V14.375H7.4974C8.17745 14.375 8.83465 14.5967 9.3724 15Z" fill="#BC996E"/>
<path fill-rule="evenodd" clip-rule="evenodd" d="M10.5344 3.03437C11.2767 2.29204 12.2835 1.875 13.3333 1.875H18.3333C18.6785 1.875 18.9583 2.15482 18.9583 2.5V15C18.9583 15.3452 18.6785 15.625 18.3333 15.625H12.5C12.0027 15.625 11.5258 15.8225 11.1742 16.1742C10.8225 16.5258 10.625 17.0027 10.625 17.5C10.625 17.8452 10.3452 18.125 10 18.125C9.65482 18.125 9.375 17.8452 9.375 17.5V5.83333C9.375 4.78352 9.79204 3.7767 10.5344 3.03437ZM10.625 15C11.1627 14.5967 11.8199 14.375 12.5 14.375H17.7083V3.125H13.3333C12.615 3.125 11.9262 3.41034 11.4183 3.91825C10.9103 4.42616 10.625 5.11504 10.625 5.83333V15Z" fill="#BC996E"/>
</svg>
