<svg width="20" height="21" viewBox="0 0 20 21" fill="none" xmlns="http://www.w3.org/2000/svg">
<path fill-rule="evenodd" clip-rule="evenodd" d="M4.16667 4.45801C3.59137 4.45801 3.125 4.92438 3.125 5.49967V17.1663C3.125 17.7416 3.59137 18.208 4.16667 18.208H15.8333C16.4086 18.208 16.875 17.7416 16.875 17.1663V5.49967C16.875 4.92438 16.4086 4.45801 15.8333 4.45801H4.16667ZM1.875 5.49967C1.875 4.23402 2.90101 3.20801 4.16667 3.20801H15.8333C17.099 3.20801 18.125 4.23402 18.125 5.49967V17.1663C18.125 18.432 17.099 19.458 15.8333 19.458H4.16667C2.90101 19.458 1.875 18.432 1.875 17.1663V5.49967Z" fill="#444444"/>
<path fill-rule="evenodd" clip-rule="evenodd" d="M13.332 1.54199C13.6772 1.54199 13.957 1.82181 13.957 2.16699V5.50033C13.957 5.8455 13.6772 6.12533 13.332 6.12533C12.9869 6.12533 12.707 5.8455 12.707 5.50033V2.16699C12.707 1.82181 12.9869 1.54199 13.332 1.54199Z" fill="#444444"/>
<path fill-rule="evenodd" clip-rule="evenodd" d="M6.66797 1.54199C7.01315 1.54199 7.29297 1.82181 7.29297 2.16699V5.50033C7.29297 5.8455 7.01315 6.12533 6.66797 6.12533C6.32279 6.12533 6.04297 5.8455 6.04297 5.50033V2.16699C6.04297 1.82181 6.32279 1.54199 6.66797 1.54199Z" fill="#444444"/>
<path fill-rule="evenodd" clip-rule="evenodd" d="M1.875 8.83301C1.875 8.48783 2.15482 8.20801 2.5 8.20801H17.5C17.8452 8.20801 18.125 8.48783 18.125 8.83301C18.125 9.17819 17.8452 9.45801 17.5 9.45801H2.5C2.15482 9.45801 1.875 9.17819 1.875 8.83301Z" fill="#444444"/>
</svg>
