<svg width="24" height="24" viewBox="0 0 24 24" fill="none" xmlns="http://www.w3.org/2000/svg">
<g clip-path="url(#clip0_8830_16583)">
<path d="M12.989 23.9584C19.5938 23.4119 24.5051 17.615 23.9586 11.0106C23.4121 4.40626 17.6148 -0.504667 11.0099 0.0417944C4.40507 0.588256 -0.506194 6.38517 0.0403054 12.9896C0.586804 19.5939 6.38412 24.5049 12.989 23.9584Z" fill="white"/>
<path fill-rule="evenodd" clip-rule="evenodd" d="M6.14258 7.58959H23.164C21.4073 3.1452 17.0704 0 12.0009 0C9.873 0 7.87438 0.553476 6.14258 1.52455V7.58793V7.58959Z" fill="#209C48"/>
<path fill-rule="evenodd" clip-rule="evenodd" d="M6.14258 16.4102H23.164C21.4057 20.8545 17.0704 23.9997 12.0009 23.9997C9.873 23.9997 7.87438 23.4463 6.14258 22.4752V16.4118V16.4102Z" fill="#060709"/>
<path fill-rule="evenodd" clip-rule="evenodd" d="M6.14169 16.4103V1.52441C2.4759 3.57924 0 7.49997 0 11.999C0 16.4981 2.4759 20.4188 6.14169 22.4737V16.4103Z" fill="#ED2124"/>
<path d="M23.7483 12.0008C23.7483 18.4044 18.578 23.6418 12.1974 23.7483H11.9992C5.5278 23.7483 0.25 18.4689 0.25 11.9992C0.25 5.52941 5.5278 0.25 11.9992 0.25C18.4705 0.25 23.7483 5.53102 23.7483 12.0008Z" stroke="#242424" stroke-width="0.5"/>
</g>
<defs>
<clipPath id="clip0_8830_16583">
<rect width="24" height="24" fill="white"/>
</clipPath>
</defs>
</svg>
