<svg width="24" height="24" viewBox="0 0 24 24" fill="none" xmlns="http://www.w3.org/2000/svg">
<g id="Category=control, Name=check-square">
<path id="Vector (Stroke)" fill-rule="evenodd" clip-rule="evenodd" d="M22.5303 3.46967C22.8232 3.76256 22.8232 4.23744 22.5303 4.53033L12.5303 14.5303C12.2374 14.8232 11.7626 14.8232 11.4697 14.5303L8.46967 11.5303C8.17678 11.2374 8.17678 10.7626 8.46967 10.4697C8.76256 10.1768 9.23744 10.1768 9.53033 10.4697L12 12.9393L21.4697 3.46967C21.7626 3.17678 22.2374 3.17678 22.5303 3.46967Z" fill="#242424"/>
<path id="Vector (Stroke)_2" fill-rule="evenodd" clip-rule="evenodd" d="M5 3.75C4.66848 3.75 4.35054 3.8817 4.11612 4.11612C3.8817 4.35054 3.75 4.66848 3.75 5V19C3.75 19.3315 3.8817 19.6495 4.11612 19.8839C4.35054 20.1183 4.66848 20.25 5 20.25H19C19.3315 20.25 19.6495 20.1183 19.8839 19.8839C20.1183 19.6495 20.25 19.3315 20.25 19V12C20.25 11.5858 20.5858 11.25 21 11.25C21.4142 11.25 21.75 11.5858 21.75 12V19C21.75 19.7293 21.4603 20.4288 20.9445 20.9445C20.4288 21.4603 19.7293 21.75 19 21.75H5C4.27065 21.75 3.57118 21.4603 3.05546 20.9445C2.53973 20.4288 2.25 19.7293 2.25 19V5C2.25 4.27065 2.53973 3.57118 3.05546 3.05546C3.57118 2.53973 4.27065 2.25 5 2.25H16C16.4142 2.25 16.75 2.58579 16.75 3C16.75 3.41421 16.4142 3.75 16 3.75H5Z" fill="#242424"/>
</g>
</svg>
