<svg width="41" height="40" viewBox="0 0 41 40" fill="none" xmlns="http://www.w3.org/2000/svg">
<path fill-rule="evenodd" clip-rule="evenodd" d="M2.83203 5C2.83203 4.30964 3.39168 3.75 4.08203 3.75H14.082C16.1817 3.75 18.1953 4.58407 19.68 6.06874C21.1646 7.5534 21.9987 9.56704 21.9987 11.6667V35C21.9987 35.6904 21.4391 36.25 20.7487 36.25C20.0583 36.25 19.4987 35.6904 19.4987 35C19.4987 34.0054 19.1036 33.0516 18.4003 32.3483C17.6971 31.6451 16.7433 31.25 15.7487 31.25H4.08203C3.39168 31.25 2.83203 30.6904 2.83203 30V5ZM19.4987 30V11.6667C19.4987 10.2301 18.928 8.85233 17.9122 7.8365C16.8964 6.82068 15.5186 6.25 14.082 6.25H5.33203V28.75H15.7487C17.1088 28.75 18.4232 29.1933 19.4987 30Z" fill="#D71921"/>
<path fill-rule="evenodd" clip-rule="evenodd" d="M21.8187 6.06874C23.3034 4.58407 25.317 3.75 27.4167 3.75H37.4167C38.107 3.75 38.6667 4.30964 38.6667 5V30C38.6667 30.6904 38.107 31.25 37.4167 31.25H25.75C24.7554 31.25 23.8016 31.6451 23.0983 32.3483C22.3951 33.0516 22 34.0054 22 35C22 35.6904 21.4404 36.25 20.75 36.25C20.0596 36.25 19.5 35.6904 19.5 35V11.6667C19.5 9.56704 20.3341 7.5534 21.8187 6.06874ZM22 30C23.0755 29.1933 24.3899 28.75 25.75 28.75H36.1667V6.25H27.4167C25.9801 6.25 24.6023 6.82068 23.5865 7.8365C22.5707 8.85233 22 10.2301 22 11.6667V30Z" fill="#D71921"/>
</svg>
