<svg width="24" height="24" viewBox="0 0 24 24" fill="none" xmlns="http://www.w3.org/2000/svg">
<path fill-rule="evenodd" clip-rule="evenodd" d="M3 14.25C3.41421 14.25 3.75 14.5858 3.75 15V19C3.75 19.3315 3.8817 19.6495 4.11612 19.8839C4.35054 20.1183 4.66848 20.25 5 20.25H19C19.3315 20.25 19.6495 20.1183 19.8839 19.8839C20.1183 19.6495 20.25 19.3315 20.25 19V15C20.25 14.5858 20.5858 14.25 21 14.25C21.4142 14.25 21.75 14.5858 21.75 15V19C21.75 19.7293 21.4603 20.4288 20.9445 20.9445C20.4288 21.4603 19.7293 21.75 19 21.75H5C4.27065 21.75 3.57118 21.4603 3.05546 20.9445C2.53973 20.4288 2.25 19.7293 2.25 19V15C2.25 14.5858 2.58579 14.25 3 14.25Z" fill="#666666"/>
<path fill-rule="evenodd" clip-rule="evenodd" d="M6.46967 9.46967C6.76256 9.17678 7.23744 9.17678 7.53033 9.46967L12 13.9393L16.4697 9.46967C16.7626 9.17678 17.2374 9.17678 17.5303 9.46967C17.8232 9.76256 17.8232 10.2374 17.5303 10.5303L12.5303 15.5303C12.2374 15.8232 11.7626 15.8232 11.4697 15.5303L6.46967 10.5303C6.17678 10.2374 6.17678 9.76256 6.46967 9.46967Z" fill="#666666"/>
<path fill-rule="evenodd" clip-rule="evenodd" d="M12 2.25C12.4142 2.25 12.75 2.58579 12.75 3V15C12.75 15.4142 12.4142 15.75 12 15.75C11.5858 15.75 11.25 15.4142 11.25 15V3C11.25 2.58579 11.5858 2.25 12 2.25Z" fill="#666666"/>
</svg>
