<svg width="97" height="42" viewBox="0 0 97 42" fill="none" xmlns="http://www.w3.org/2000/svg">
<path d="M58.8704 11.6214V8.36531L96.0561 1.43848L58.8704 11.6214Z" fill="white"/>
<path d="M9.34503 20.3816H8.47391C4.98556 20.3816 3.23944 21.091 3.23944 22.7965C3.23944 24.0835 4.69389 24.599 5.98501 24.599C7.34224 24.599 8.11613 24.3742 9.34503 23.5369V20.3816ZM9.34503 26.9247V25.9596C8.11613 26.8937 6.7589 27.3124 5.14501 27.3124C1.74999 27.3124 0.10498 25.2812 0.10498 22.8004C0.10498 19.6413 3.27055 17.9047 7.40835 17.9047H9.41114C9.41114 16.2961 8.73058 15.7147 6.72779 15.7147C5.04778 15.7147 3.75278 15.9395 2.58999 16.455L1.52443 14.168C2.78444 13.4277 4.88445 13.137 6.37001 13.137C10.1189 13.137 12.4134 14.2339 12.4134 17.1334V26.9247H9.34503Z" fill="white"/>
<path d="M19.8996 27.3085L13.4363 13.5207H16.8313L19.7402 19.994C19.8685 20.2499 19.9658 20.6375 19.9658 20.6375C19.9658 20.6375 20.063 20.2189 20.1913 19.9592L23.1313 13.5168H26.3941L19.8996 27.3046V27.3085Z" fill="white"/>
<path d="M31.7258 13.6487H28.6575V27.0488H31.7258V13.6487Z" fill="white"/>
<path d="M43.377 20.5096H42.5059C39.0175 20.5096 37.2714 21.2189 37.2714 22.9244C37.2714 24.2114 38.7259 24.7308 40.017 24.7308C41.3742 24.7308 42.152 24.506 43.377 23.6687V20.5096ZM43.377 27.0488V26.0836C42.1481 27.0178 40.7909 27.4364 39.177 27.4364C35.782 27.4364 34.137 25.4052 34.137 22.9244C34.137 19.7692 37.3025 18.0288 41.4403 18.0288H43.4431C43.4431 16.4201 42.7626 15.8387 40.7598 15.8387C39.0798 15.8387 37.7848 16.0635 36.622 16.579L35.5564 14.2921C36.8164 13.5517 38.9164 13.261 40.402 13.261C44.1509 13.261 46.4454 14.358 46.4454 17.2574V27.0488H43.377Z" fill="white"/>
<path d="M55.4052 27.2425C52.3369 27.2425 50.3963 26.6301 50.3963 22.6996V16.4821H48.553V13.6485H50.3963V8.6792H53.4647V13.6485H55.8875V16.4821H53.4647V22.6026C53.4647 24.0213 53.9819 24.3431 55.3702 24.3431C55.5336 24.3431 55.9186 24.3121 55.9186 24.3121V27.2115C55.9186 27.2115 55.5297 27.2425 55.4014 27.2425" fill="white"/>
<path d="M61.9387 13.6487H58.8704V27.0488H61.9387V13.6487Z" fill="white"/>
<path d="M71.0464 16.0945C68.7519 16.0945 67.3947 17.9629 67.3947 20.2499C67.3947 22.9245 68.7519 24.599 71.0153 24.599C73.7608 24.599 74.8925 22.7307 74.8925 20.3158C74.8925 17.7071 73.407 16.0945 71.0464 16.0945ZM71.1086 27.4364C67.1341 27.4364 64.2563 24.6339 64.2563 20.2537C64.2563 16.645 66.8425 13.2649 71.0425 13.2649C75.2425 13.2649 78.0231 16.486 78.0231 20.1258C78.0231 24.1843 75.2114 27.4364 71.1086 27.4364Z" fill="white"/>
<path d="M88.8499 27.0488V18.897C88.8499 17.2535 88.041 16.0945 86.2988 16.0945C84.0043 16.0945 83.1643 18.1877 83.1643 19.8312V27.0488H80.0959V13.6486H83.1643V15.2572C84.0043 13.9703 85.4276 13.261 86.9793 13.261C89.8571 13.261 91.926 15.0014 91.926 18.3195V27.0488H88.8577H88.8499Z" fill="white"/>
<path d="M4.93112 3.88054C4.82612 3.68285 4.6939 3.50842 4.53056 3.35337C4.36723 3.19832 4.16889 3.07428 3.93945 2.98125C3.71 2.88822 3.44945 2.8417 3.16944 2.8417C2.57055 2.8417 2.0961 3.00063 1.74221 3.32236C1.39221 3.64409 1.17443 4.03559 1.08888 4.50461H5.15279C5.11001 4.28754 5.03612 4.07822 4.93112 3.88054ZM1.02277 5.338C1.03443 5.68299 1.09277 5.99696 1.19777 6.28768C1.30277 6.5784 1.45055 6.83035 1.64499 7.04354C1.83944 7.25674 2.07666 7.42729 2.35277 7.55133C2.63277 7.67537 2.94778 7.73739 3.30556 7.73739C3.78778 7.73739 4.20001 7.65987 4.54223 7.50094C4.88445 7.34202 5.19945 7.12882 5.49501 6.85749L6.15613 7.50094C5.85279 7.80716 5.46779 8.08238 5.00501 8.32658C4.54223 8.57078 3.96667 8.69482 3.27056 8.69482C2.75722 8.69482 2.29444 8.60567 1.89388 8.42736C1.48943 8.24905 1.14721 8.00485 0.867209 7.69863C0.587208 7.38853 0.369429 7.02416 0.22165 6.60165C0.069983 6.17914 -0.00390625 5.71787 -0.00390625 5.22559C-0.00390625 4.78758 0.069983 4.36894 0.213873 3.96969C0.357762 3.57044 0.567763 3.2177 0.843876 2.91148C1.11999 2.60138 1.45443 2.36105 1.85499 2.18274C2.25555 2.00444 2.69889 1.91528 3.19278 1.91528C3.68667 1.91528 4.13778 2.00831 4.51501 2.1905C4.89223 2.37268 5.21112 2.62076 5.47557 2.93473C5.74001 3.24871 5.93446 3.61308 6.06668 4.02783C6.1989 4.44259 6.2689 4.87673 6.28057 5.338H1.02277Z" fill="white"/>
<path d="M15.6605 8.50873V4.35728C15.6605 3.88826 15.5439 3.52389 15.3144 3.26031C15.085 3.0006 14.77 2.86881 14.3694 2.86881C14.1166 2.86881 13.8794 2.91532 13.6539 3.00835C13.4283 3.10138 13.2339 3.2293 13.0705 3.3921C12.9072 3.5549 12.7789 3.74096 12.6855 3.95415C12.5922 4.16735 12.5455 4.39604 12.5455 4.63637V8.50486H11.5227V4.35341C11.5227 3.88438 11.4138 3.52002 11.1922 3.25643C10.9705 2.99285 10.64 2.86493 10.2005 2.86493C9.94773 2.86493 9.71051 2.91145 9.49273 3.00448C9.27106 3.09751 9.0805 3.2293 8.91717 3.39598C8.75384 3.56265 8.6255 3.75259 8.53217 3.96966C8.43883 4.18285 8.39217 4.41155 8.39217 4.65188V8.50486H7.36938V2.09744H8.39217V2.96184C8.58272 2.65949 8.85106 2.40753 9.20495 2.20985C9.55884 2.01216 9.93995 1.91138 10.3483 1.91138C10.885 1.91138 11.3088 2.01604 11.6239 2.22535C11.9389 2.43467 12.1761 2.71763 12.3316 3.07425C12.5727 2.71763 12.8955 2.43467 13.3039 2.22535C13.7122 2.01604 14.1205 1.91138 14.5289 1.91138C14.9061 1.91138 15.2328 1.9734 15.5089 2.09356C15.785 2.21372 16.0105 2.3804 16.1855 2.58972C16.3605 2.79904 16.485 3.04324 16.5705 3.31845C16.6522 3.59754 16.695 3.89601 16.695 4.22161V8.50873H15.6722H15.6605Z" fill="white"/>
<path d="M19.1412 2.10132H18.1184V8.50874H19.1412V2.10132Z" fill="white"/>
<path d="M24.1812 3.23317C23.8973 2.99285 23.5862 2.87268 23.2518 2.87268C23.0418 2.87268 22.8473 2.92695 22.6607 3.03549C22.474 3.14402 22.3146 3.29519 22.1707 3.48125C22.0307 3.67119 21.9179 3.88826 21.8401 4.13246C21.7623 4.37666 21.7196 4.63637 21.7196 4.91158V8.50873H20.6968V2.10131H21.7196V2.98122C21.8984 2.66724 22.1357 2.41141 22.4273 2.20985C22.7229 2.01216 23.0535 1.91138 23.419 1.91138C23.6796 1.91138 23.909 1.94626 24.1035 2.01991C24.2979 2.09356 24.4962 2.22148 24.6946 2.39591L24.1735 3.2293L24.1812 3.23317Z" fill="white"/>
<path d="M29.3186 5.19458H28.4513C27.588 5.19458 26.9385 5.30312 26.4913 5.52406C26.0441 5.74501 25.8224 6.10937 25.8224 6.62491C25.8224 7.01254 25.9741 7.29938 26.2697 7.48931C26.5691 7.67925 26.9113 7.77228 27.3002 7.77228C27.6891 7.77228 28.0624 7.70251 28.3969 7.55909C28.7274 7.41954 29.0347 7.23736 29.3186 7.01641V5.19458ZM29.3186 8.50876V7.89632C29.0347 8.13664 28.708 8.33046 28.3424 8.47775C27.973 8.62505 27.5647 8.6987 27.1135 8.6987C26.3902 8.6987 25.8185 8.50876 25.3947 8.13277C24.9747 7.75677 24.7646 7.25286 24.7646 6.62491C24.7646 6.24892 24.8463 5.91556 25.0096 5.62872C25.173 5.34188 25.4024 5.10155 25.7019 4.91549C26.0013 4.72556 26.3591 4.58213 26.7791 4.48523C27.1991 4.38445 27.6658 4.33406 28.1791 4.33406H29.3302V4.05109C29.3302 3.54718 29.1863 3.21382 28.8986 3.0549C28.6108 2.8921 28.2297 2.81069 27.7552 2.81069C26.9658 2.81069 26.3163 2.94636 25.803 3.2177L25.4258 2.43082C25.7213 2.25252 26.0713 2.12072 26.4758 2.03932C26.8802 1.95792 27.2847 1.91528 27.6852 1.91528C28.5797 1.91528 29.2486 2.08196 29.6919 2.41144C30.1352 2.74092 30.3569 3.22158 30.3569 3.84953V8.51264H29.3186V8.50876Z" fill="white"/>
<path d="M34.1368 8.53975C34.0824 8.53975 34.0279 8.53975 33.9618 8.5475C33.8996 8.55138 33.8607 8.55525 33.8529 8.55525C33.2735 8.55525 32.8185 8.42734 32.484 8.1715C32.1457 7.91567 31.9785 7.46991 31.9785 6.8342V3.05875H31.0334V2.10132H31.9785V0.240723H33.0012V2.10132H34.2146V3.05875H33.0012V6.79932C33.0012 7.31873 33.2968 7.57844 33.884 7.57844H34.2301V8.53587H34.1368V8.53975Z" fill="white"/>
<path d="M39.8418 3.88054C39.7368 3.68285 39.6007 3.50842 39.4412 3.35337C39.2779 3.19832 39.0795 3.07428 38.8501 2.98125C38.6168 2.88822 38.3601 2.8417 38.0762 2.8417C37.4773 2.8417 37.0029 3.00063 36.649 3.32236C36.299 3.64409 36.0773 4.03559 35.9956 4.50461H40.0595C40.0168 4.28754 39.9429 4.07822 39.8379 3.88054M35.9334 5.338C35.9412 5.68299 36.0034 5.99696 36.1084 6.28768C36.2134 6.5784 36.3612 6.83035 36.5556 7.04354C36.7501 7.25674 36.9873 7.42729 37.2634 7.55133C37.5434 7.67537 37.8584 7.73739 38.2162 7.73739C38.6984 7.73739 39.1106 7.65987 39.4529 7.50094C39.7951 7.34202 40.1101 7.12882 40.4057 6.85749L41.0668 7.50094C40.7634 7.80716 40.3784 8.08238 39.9157 8.32658C39.4529 8.57078 38.8773 8.69482 38.1812 8.69482C37.6679 8.69482 37.2051 8.60567 36.8045 8.42736C36.4001 8.24905 36.0579 8.00485 35.7779 7.69863C35.4979 7.38853 35.2801 7.02416 35.1323 6.60165C34.9806 6.17914 34.9067 5.71787 34.9067 5.22559C34.9067 4.78758 34.9806 4.36894 35.1245 3.96969C35.2684 3.57044 35.4784 3.2177 35.7545 2.91148C36.0306 2.60138 36.369 2.36105 36.7656 2.18274C37.1623 2.00444 37.6095 1.91528 38.1034 1.91528C38.5973 1.91528 39.0484 2.00831 39.4256 2.1905C39.8029 2.37268 40.1257 2.62076 40.3862 2.93473C40.6468 3.24871 40.8451 3.61308 40.9773 4.02783C41.1095 4.44259 41.1795 4.87673 41.1912 5.338H35.9295H35.9334Z" fill="white"/>
<path d="M46.1846 7.55121C46.0641 7.78379 45.9046 7.98147 45.7024 8.14815C45.5002 8.31483 45.263 8.44662 44.9907 8.53965C44.7185 8.63268 44.4346 8.6792 44.1391 8.6792C43.7074 8.6792 43.2952 8.60943 42.9024 8.47376C42.5096 8.33809 42.1635 8.1559 41.8718 7.92333L42.4241 7.13646C42.6768 7.33414 42.9529 7.48532 43.2602 7.58997C43.5674 7.69463 43.8474 7.74502 44.1118 7.74502C44.2674 7.74502 44.423 7.72564 44.5668 7.683C44.7146 7.64037 44.8468 7.57835 44.9596 7.49307C45.0763 7.40779 45.1657 7.31088 45.2357 7.20235C45.3057 7.09382 45.3368 6.9659 45.3368 6.8186C45.3368 6.6403 45.3018 6.493 45.2241 6.37284C45.1502 6.25267 45.0491 6.14414 44.9168 6.05111C44.7846 5.95808 44.633 5.87668 44.458 5.80691C44.283 5.73713 44.1041 5.67511 43.9135 5.60922C43.6918 5.52782 43.4663 5.43091 43.2329 5.32625C42.9996 5.22159 42.7935 5.09755 42.6146 4.95026C42.4357 4.80296 42.2879 4.62465 42.1713 4.41534C42.0546 4.20602 41.9963 3.95019 41.9963 3.64784C41.9963 3.38426 42.0546 3.14393 42.1713 2.92298C42.2879 2.70204 42.4435 2.51986 42.6418 2.37256C42.8441 2.22526 43.0657 2.11285 43.3107 2.02757C43.5557 1.9423 43.8163 1.89966 44.0924 1.89966C44.4502 1.89966 44.8002 1.94617 45.1463 2.04308C45.4924 2.13611 45.8268 2.30279 46.1535 2.54699L45.6791 3.32999C45.4263 3.15168 45.1696 3.01989 44.9013 2.93849C44.633 2.85321 44.3607 2.81445 44.0885 2.81445C43.8357 2.81445 43.5946 2.87647 43.3652 3.00051C43.1318 3.12843 43.0191 3.32999 43.0191 3.61296C43.0191 3.89592 43.1396 4.09748 43.3807 4.24866C43.6218 4.39983 43.9407 4.54325 44.3413 4.67892C44.5707 4.7642 44.808 4.8611 45.0491 4.96964C45.2902 5.07817 45.508 5.21384 45.7024 5.36889C45.8968 5.52394 46.0524 5.71775 46.173 5.95033C46.2935 6.17902 46.3557 6.45811 46.3557 6.78372C46.3557 7.05505 46.2974 7.30701 46.1768 7.53571" fill="white"/>
<path d="M43.6453 38.5999V37.6503C43.4509 37.9914 43.1747 38.2705 42.817 38.4759C42.4553 38.6852 42.047 38.7899 41.5842 38.7899C40.8103 38.7899 40.2153 38.5767 39.7953 38.1464C39.3753 37.7162 39.1653 37.1347 39.1653 36.3944V32.0375H40.2153V36.2161C40.2153 36.6657 40.3475 37.0495 40.6081 37.3634C40.8725 37.6813 41.2575 37.8363 41.7631 37.8363C42.0547 37.8363 42.3153 37.7743 42.5525 37.6503C42.7897 37.5262 42.9881 37.3673 43.1514 37.1774C43.3147 36.9874 43.4353 36.7665 43.5209 36.5262C43.6064 36.2858 43.6492 36.0533 43.6492 35.8284V32.0375H44.6992V38.5961H43.6492L43.6453 38.5999Z" fill="white"/>
<path d="M50.7698 38.6V34.4331C50.7698 33.9641 50.6415 33.5764 50.3848 33.278C50.1243 32.9795 49.7393 32.8283 49.222 32.8283C48.9109 32.8283 48.6387 32.8903 48.4093 33.0105C48.1759 33.1345 47.9815 33.2935 47.822 33.4834C47.6626 33.6772 47.542 33.8904 47.4604 34.123C47.3787 34.3594 47.3398 34.5881 47.3398 34.8129V38.5962H46.2898V32.0376H47.3398V32.9872C47.542 32.6345 47.8259 32.3554 48.1876 32.15C48.5493 31.9484 48.9459 31.8438 49.3893 31.8438C50.1281 31.8438 50.7232 32.0608 51.1626 32.495C51.602 32.9291 51.8237 33.5105 51.8237 34.2393V38.5962H50.7737L50.7698 38.6Z" fill="white"/>
<path d="M54.332 32.0452H53.2859V38.6038H54.332V32.0452Z" fill="white"/>
<path d="M58.4813 38.8906L55.3896 32.0452H56.533L58.4813 36.5106L60.4686 32.0452H61.5614L58.4813 38.8906Z" fill="white"/>
<path d="M66.9553 33.8671C66.8464 33.6655 66.7103 33.4833 66.5431 33.3244C66.3759 33.1655 66.1736 33.0376 65.9403 32.9407C65.7031 32.8438 65.4425 32.7972 65.1509 32.7972C64.5403 32.7972 64.0542 32.9639 63.6925 33.2895C63.3308 33.619 63.1092 34.0221 63.0236 34.4989H67.1848C67.142 34.278 67.0642 34.0648 66.9592 33.8632M62.9575 35.3556C62.9692 35.7083 63.0275 36.0339 63.1364 36.3285C63.2453 36.627 63.397 36.8867 63.5953 37.1037C63.7936 37.3208 64.0347 37.4952 64.3225 37.6232C64.6064 37.7511 64.9331 37.8131 65.2986 37.8131C65.7925 37.8131 66.2164 37.7317 66.5625 37.5728C66.9125 37.41 67.2353 37.1929 67.5386 36.9138L68.2153 37.5728C67.9042 37.8867 67.5114 38.1658 67.0409 38.4178C66.5664 38.6697 65.9753 38.7938 65.2675 38.7938C64.7386 38.7938 64.272 38.7046 63.8558 38.5224C63.4436 38.3403 63.0936 38.0922 62.8058 37.7743C62.5181 37.4604 62.3003 37.0844 62.1447 36.6502C61.9892 36.2161 61.9153 35.7471 61.9153 35.2431C61.9153 34.7935 61.9892 34.3671 62.1369 33.9562C62.2847 33.5492 62.5025 33.1887 62.7825 32.8709C63.0625 32.553 63.4086 32.305 63.817 32.1228C64.2253 31.9406 64.6803 31.8514 65.1859 31.8514C65.6914 31.8514 66.1542 31.9445 66.5392 32.1344C66.9242 32.3205 67.2548 32.5763 67.5231 32.898C67.7914 33.2198 67.9936 33.5919 68.1298 34.0144C68.262 34.4369 68.3359 34.8865 68.3475 35.3556H62.9614H62.9575Z" fill="white"/>
<path d="M73.0027 33.2004C72.711 32.9562 72.396 32.8322 72.0499 32.8322C71.836 32.8322 71.6338 32.8903 71.4471 32.9989C71.2604 33.1113 71.0932 33.2625 70.9454 33.4563C70.8015 33.6501 70.6888 33.871 70.6071 34.123C70.5254 34.3749 70.4865 34.6385 70.4865 34.9176V38.5962H69.4365V32.0376H70.4865V32.9368C70.6693 32.6151 70.9104 32.3515 71.2138 32.15C71.5132 31.9484 71.8515 31.8438 72.2288 31.8438C72.4971 31.8438 72.7304 31.8825 72.9288 31.9562C73.1271 32.0298 73.3293 32.1616 73.5354 32.3438L73.0027 33.1966V33.2004Z" fill="white"/>
<path d="M78.4198 37.6192C78.2953 37.8556 78.132 38.0572 77.9259 38.2316C77.7198 38.4022 77.4748 38.5379 77.1987 38.6348C76.9186 38.7317 76.627 38.7782 76.3275 38.7782C75.8881 38.7782 75.4642 38.7084 75.0636 38.5689C74.6631 38.4293 74.3092 38.2433 74.0059 38.0068L74.5698 37.2044C74.8264 37.4099 75.1142 37.5649 75.4253 37.6696C75.7364 37.7781 76.0281 37.8285 76.2964 37.8285C76.4559 37.8285 76.6114 37.8052 76.7631 37.7665C76.9148 37.7238 77.047 37.658 77.1637 37.5727C77.2842 37.4874 77.3775 37.3866 77.4475 37.2742C77.5175 37.1618 77.5525 37.03 77.5525 36.8827C77.5525 36.7005 77.5137 36.5493 77.4398 36.4253C77.3659 36.3013 77.257 36.1927 77.1248 36.0958C76.9887 35.9989 76.8331 35.9175 76.6542 35.8478C76.4753 35.778 76.2886 35.7121 76.0942 35.6462C75.8686 35.5609 75.6353 35.464 75.3981 35.3555C75.1609 35.2469 74.9509 35.119 74.7681 34.9717C74.5853 34.8205 74.4336 34.6384 74.3131 34.4252C74.1925 34.212 74.1342 33.9484 74.1342 33.6383C74.1342 33.3708 74.1925 33.1228 74.3131 32.8979C74.4297 32.6731 74.5931 32.4832 74.7953 32.3359C74.9975 32.1847 75.227 32.0684 75.4798 31.9831C75.7325 31.8979 75.997 31.8552 76.277 31.8552C76.6425 31.8552 77.0042 31.9017 77.3581 31.9986C77.712 32.0956 78.0581 32.2661 78.3887 32.5142L77.9064 33.3204C77.6498 33.1383 77.3814 33.0026 77.1092 32.9173C76.837 32.832 76.557 32.7894 76.2809 32.7894C76.0242 32.7894 75.7753 32.8553 75.5381 32.9832C75.3009 33.1111 75.1842 33.3204 75.1842 33.6112C75.1842 33.9019 75.3086 34.1073 75.5536 34.2624C75.7986 34.4174 76.1292 34.5647 76.5375 34.7043C76.7748 34.7895 77.0159 34.8903 77.2648 35.0027C77.5098 35.1151 77.7353 35.2508 77.9337 35.4136C78.132 35.5725 78.2953 35.7741 78.4159 36.0067C78.5403 36.2431 78.6025 36.5261 78.6025 36.8594C78.6025 37.1385 78.5403 37.3944 78.4198 37.6308" fill="white"/>
<path d="M80.8466 32.0452H79.7966V38.6038H80.8466V32.0452Z" fill="white"/>
<path d="M85.1089 38.6348C85.0544 38.6348 84.9961 38.6348 84.93 38.6426C84.8639 38.6503 84.8289 38.6503 84.8172 38.6503C84.2261 38.6503 83.7594 38.5186 83.4133 38.2588C83.0672 37.9991 82.8961 37.5417 82.8961 36.8905V33.0298H81.9277V32.0491H82.8961V30.0994H83.9422V32.0491H85.1827V33.0298H83.9422V36.8595C83.9422 37.3906 84.2416 37.658 84.8444 37.658H85.1983V38.6387H85.1011L85.1089 38.6348Z" fill="white"/>
<path d="M88.8383 40.0806C88.6866 40.4876 88.4727 40.8365 88.1927 41.135C87.9127 41.4296 87.5199 41.5769 87.0144 41.5769C86.8083 41.5769 86.6294 41.5614 86.4738 41.5342C86.3183 41.5071 86.1588 41.4606 85.9994 41.3947V40.4024C86.2366 40.5303 86.4816 40.5962 86.7422 40.5962C86.9366 40.5962 87.0999 40.5652 87.2322 40.4993C87.3683 40.4373 87.4772 40.3481 87.5705 40.2357C87.6599 40.1233 87.7377 39.9954 87.8038 39.8519C87.8699 39.7085 87.9322 39.5535 87.9983 39.3945L88.3055 38.627L85.8049 32.0491H86.9327L88.9161 37.2394L90.8177 32.0491H91.9144L88.8344 40.0845L88.8383 40.0806Z" fill="white"/>
</svg>
