<svg width="40" height="40" viewBox="0 0 40 40" fill="none" xmlns="http://www.w3.org/2000/svg">
<g id="System Icon">
<path id="Vector (Stroke)" fill-rule="evenodd" clip-rule="evenodd" d="M19.9987 4.58398C11.4843 4.58398 4.58203 11.4863 4.58203 20.0007C4.58203 28.515 11.4843 35.4173 19.9987 35.4173C28.5131 35.4173 35.4154 28.515 35.4154 20.0007C35.4154 11.4863 28.5131 4.58398 19.9987 4.58398ZM2.08203 20.0007C2.08203 10.1055 10.1036 2.08398 19.9987 2.08398C29.8938 2.08398 37.9154 10.1055 37.9154 20.0007C37.9154 29.8958 29.8938 37.9173 19.9987 37.9173C10.1036 37.9173 2.08203 29.8958 2.08203 20.0007Z" fill="#F72834"/>
<path id="Vector (Stroke)_2" fill-rule="evenodd" clip-rule="evenodd" d="M20 12.084C20.6904 12.084 21.25 12.6436 21.25 13.334V20.0007C21.25 20.691 20.6904 21.2507 20 21.2507C19.3096 21.2507 18.75 20.691 18.75 20.0007V13.334C18.75 12.6436 19.3096 12.084 20 12.084Z" fill="#F72834"/>
<path id="Vector (Stroke)_3" fill-rule="evenodd" clip-rule="evenodd" d="M18.75 26.666C18.75 25.9757 19.3096 25.416 20 25.416H20.0167C20.707 25.416 21.2667 25.9757 21.2667 26.666C21.2667 27.3564 20.707 27.916 20.0167 27.916H20C19.3096 27.916 18.75 27.3564 18.75 26.666Z" fill="#F72834"/>
</g>
</svg>
