<svg width="41" height="40" viewBox="0 0 41 40" fill="none" xmlns="http://www.w3.org/2000/svg">
<path fill-rule="evenodd" clip-rule="evenodd" d="M20.4987 2.91602C14.7457 2.91602 10.082 7.57972 10.082 13.3327C10.082 19.0856 14.7457 23.7493 20.4987 23.7493C26.2517 23.7493 30.9154 19.0856 30.9154 13.3327C30.9154 7.57972 26.2517 2.91602 20.4987 2.91602ZM7.58203 13.3327C7.58203 6.199 13.365 0.416016 20.4987 0.416016C27.6324 0.416016 33.4154 6.199 33.4154 13.3327C33.4154 20.4664 27.6324 26.2493 20.4987 26.2493C13.365 26.2493 7.58203 20.4664 7.58203 13.3327Z" fill="#D71921"/>
<path fill-rule="evenodd" clip-rule="evenodd" d="M26.6536 21.8938C27.338 21.803 27.9663 22.2842 28.0571 22.9686L30.0738 38.1686C30.1369 38.6443 29.9221 39.1143 29.5209 39.3778C29.1197 39.6412 28.6031 39.6518 28.1915 39.4048L20.5013 34.7907L12.8111 39.4048C12.3995 39.6518 11.8829 39.6412 11.4817 39.3777C11.0805 39.1142 10.8657 38.6442 10.9289 38.1684L12.9455 22.985C13.0364 22.3007 13.6649 21.8196 14.3492 21.9105C15.0336 22.0014 15.5147 22.6299 15.4238 23.3142L13.7486 35.9269L19.8582 32.2611C20.2541 32.0236 20.7486 32.0236 21.1445 32.2611L27.2545 35.9271L25.5789 23.2974C25.4881 22.613 25.9692 21.9846 26.6536 21.8938Z" fill="#D71921"/>
</svg>
