<svg width="16" height="16" viewBox="0 0 16 16" fill="none" xmlns="http://www.w3.org/2000/svg">
<g clip-path="url(#clip0_4339_35484)">
<path fill-rule="evenodd" clip-rule="evenodd" d="M10.5085 2.36394C9.29386 1.82272 7.93678 1.68864 6.63968 1.9817C5.34258 2.27476 4.17497 2.97926 3.31097 3.99014C2.44698 5.00101 1.9329 6.26409 1.8454 7.591C1.7579 8.91792 2.10168 10.2376 2.82546 11.3531C3.54924 12.4687 4.61423 13.3204 5.86162 13.7813C7.10901 14.2421 8.47195 14.2874 9.74717 13.9103C11.0224 13.5333 12.1416 12.7541 12.9378 11.6891C13.734 10.624 14.1646 9.33007 14.1654 8.00028V7.38723C14.1654 7.11109 14.3892 6.88723 14.6654 6.88723C14.9415 6.88723 15.1654 7.11109 15.1654 7.38723V8.00056C15.1645 9.546 14.6641 11.05 13.7387 12.2878C12.8134 13.5256 11.5127 14.4311 10.0307 14.8693C8.54869 15.3075 6.96473 15.2549 5.51507 14.7193C4.0654 14.1837 2.8277 13.1939 1.98655 11.8974C1.14541 10.6009 0.745882 9.06729 0.847566 7.52521C0.949251 5.98312 1.5467 4.51521 2.5508 3.34042C3.5549 2.16562 4.91186 1.34687 6.4193 1.00628C7.92674 0.665699 9.50389 0.821522 10.9155 1.45051C11.1678 1.5629 11.2811 1.85849 11.1687 2.11073C11.0564 2.36296 10.7608 2.47633 10.5085 2.36394Z" fill="#444444"/>
<path fill-rule="evenodd" clip-rule="evenodd" d="M15.02 2.31229C15.2154 2.50745 15.2156 2.82403 15.0204 3.01939L8.35373 9.69273C8.25998 9.78657 8.13278 9.83932 8.00012 9.83935C7.86747 9.83938 7.74025 9.7867 7.64645 9.6929L5.64645 7.6929C5.45118 7.49764 5.45118 7.18106 5.64645 6.9858C5.84171 6.79053 6.15829 6.79053 6.35355 6.9858L7.99982 8.63207L14.3129 2.31264C14.5081 2.11728 14.8247 2.11712 15.02 2.31229Z" fill="#444444"/>
</g>
<defs>
<clipPath id="clip0_4339_35484">
<rect width="16" height="16" fill="white"/>
</clipPath>
</defs>
</svg>
