<svg width="24" height="24" viewBox="0 0 24 24" fill="none" xmlns="http://www.w3.org/2000/svg">
<path fill-rule="evenodd" clip-rule="evenodd" d="M4 13.25C4.41421 13.25 4.75 13.5858 4.75 14V21C4.75 21.4142 4.41421 21.75 4 21.75C3.58579 21.75 3.25 21.4142 3.25 21V14C3.25 13.5858 3.58579 13.25 4 13.25Z" fill="#666666"/>
<path fill-rule="evenodd" clip-rule="evenodd" d="M4 2.25C4.41421 2.25 4.75 2.58579 4.75 3V10C4.75 10.4142 4.41421 10.75 4 10.75C3.58579 10.75 3.25 10.4142 3.25 10V3C3.25 2.58579 3.58579 2.25 4 2.25Z" fill="#242424"/>
<path fill-rule="evenodd" clip-rule="evenodd" d="M12 11.25C12.4142 11.25 12.75 11.5858 12.75 12V21C12.75 21.4142 12.4142 21.75 12 21.75C11.5858 21.75 11.25 21.4142 11.25 21V12C11.25 11.5858 11.5858 11.25 12 11.25Z" fill="#242424"/>
<path fill-rule="evenodd" clip-rule="evenodd" d="M12 2.25C12.4142 2.25 12.75 2.58579 12.75 3V8C12.75 8.41421 12.4142 8.75 12 8.75C11.5858 8.75 11.25 8.41421 11.25 8V3C11.25 2.58579 11.5858 2.25 12 2.25Z" fill="#242424"/>
<path fill-rule="evenodd" clip-rule="evenodd" d="M20 15.25C20.4142 15.25 20.75 15.5858 20.75 16V21C20.75 21.4142 20.4142 21.75 20 21.75C19.5858 21.75 19.25 21.4142 19.25 21V16C19.25 15.5858 19.5858 15.25 20 15.25Z" fill="#242424"/>
<path fill-rule="evenodd" clip-rule="evenodd" d="M20 2.25C20.4142 2.25 20.75 2.58579 20.75 3V12C20.75 12.4142 20.4142 12.75 20 12.75C19.5858 12.75 19.25 12.4142 19.25 12V3C19.25 2.58579 19.5858 2.25 20 2.25Z" fill="#242424"/>
<path fill-rule="evenodd" clip-rule="evenodd" d="M0.25 14C0.25 13.5858 0.585786 13.25 1 13.25H7C7.41421 13.25 7.75 13.5858 7.75 14C7.75 14.4142 7.41421 14.75 7 14.75H1C0.585786 14.75 0.25 14.4142 0.25 14Z" fill="#242424"/>
<path fill-rule="evenodd" clip-rule="evenodd" d="M8.25 8C8.25 7.58579 8.58579 7.25 9 7.25H15C15.4142 7.25 15.75 7.58579 15.75 8C15.75 8.41421 15.4142 8.75 15 8.75H9C8.58579 8.75 8.25 8.41421 8.25 8Z" fill="#242424"/>
<path fill-rule="evenodd" clip-rule="evenodd" d="M16.25 16C16.25 15.5858 16.5858 15.25 17 15.25H23C23.4142 15.25 23.75 15.5858 23.75 16C23.75 16.4142 23.4142 16.75 23 16.75H17C16.5858 16.75 16.25 16.4142 16.25 16Z" fill="#242424"/>
</svg>
