<svg width="24" height="24" viewBox="0 0 24 24" fill="none" xmlns="http://www.w3.org/2000/svg">
<path d="M6.47768 22.0001H2.33036V8.64741H6.47768V22.0001ZM4.40179 6.82598C3.07589 6.82598 2 5.72777 2 4.40188C2 3.76488 2.25304 3.15398 2.70347 2.70356C3.15389 2.25314 3.76479 2.00009 4.40179 2.00009C5.03878 2.00009 5.64968 2.25314 6.1001 2.70356C6.55053 3.15398 6.80357 3.76488 6.80357 4.40188C6.80357 5.72777 5.72768 6.82598 4.40179 6.82598ZM21.9955 22.0001H17.8571V15.5001C17.8571 13.951 17.8259 11.9644 15.7009 11.9644C13.5446 11.9644 13.2143 13.6474 13.2143 15.3885V22.0001H9.07143V8.64741H13.0491V10.4688H13.1071C13.6607 9.41973 15.0134 8.31259 17.0313 8.31259C21.2277 8.31259 22 11.076 22 14.6653V22.0001H21.9955Z" fill="#242424"/>
</svg>
