<svg width="24" height="24" viewBox="0 0 24 24" fill="none" xmlns="http://www.w3.org/2000/svg">
<path fill-rule="evenodd" clip-rule="evenodd" d="M19.0437 4.79544C20.8563 6.56585 21.9138 8.96807 21.995 11.4997C22.0001 11.5818 22.0001 11.6639 22.0001 11.7474C21.9851 13.4467 21.5293 15.1132 20.6772 16.5838C19.8251 18.0545 18.6059 19.2792 17.1386 20.1382C15.6713 20.9972 14.0061 21.4612 12.3058 21.4848C10.6054 21.5084 8.92799 21.0908 7.43738 20.2729L1.99951 22.0001L3.76925 16.7786C2.84713 15.2626 2.36032 13.5222 2.36218 11.7481C2.36218 11.605 2.36654 11.4663 2.37163 11.321C2.49897 8.7913 3.60011 6.40873 5.44474 4.67162C7.28937 2.93452 9.73464 1.97742 12.2691 2.0005C14.8036 2.02358 17.231 3.02504 19.0437 4.79544ZM7.64233 18.5791C8.99015 19.4663 10.5694 19.9374 12.1833 19.9337L12.1841 19.9308C14.3642 19.9368 16.4576 19.0784 18.0052 17.5438C19.5527 16.0092 20.428 13.9239 20.439 11.7452C20.439 11.5288 20.4303 11.3181 20.4114 11.1068C20.2355 9.0613 19.303 7.15478 17.7961 5.75945C16.2891 4.36412 14.3159 3.58017 12.2616 3.56066C10.2074 3.54115 8.21958 4.28748 6.68637 5.65393C5.15316 7.02039 4.18462 8.90885 3.96985 10.9506C3.94207 11.2146 3.92824 11.4798 3.92842 11.7452C3.92729 13.4718 4.47807 15.1536 5.50047 16.5454L4.47061 19.5858L7.64233 18.5791ZM15.0339 12.9366C15.2555 13.015 16.4366 13.5932 16.68 13.713L16.6822 13.7145C16.7286 13.7374 16.7719 13.7582 16.8121 13.7774C16.9812 13.8585 17.0935 13.9124 17.1423 13.9905C17.2065 14.3747 17.156 14.7693 16.9969 15.125C16.8228 15.4183 16.588 15.6711 16.3082 15.8665C16.0285 16.0619 15.7102 16.1954 15.3747 16.258C15.299 16.2651 15.2362 16.2807 15.1715 16.2966C14.8602 16.3735 14.5082 16.4605 12.4835 15.6653C10.225 14.7784 8.73369 12.5867 8.42602 12.1346C8.40062 12.0973 8.38329 12.0718 8.37426 12.0599C7.99434 11.5616 7.70368 11.0013 7.51519 10.4039C7.43689 10.1404 7.39484 9.86745 7.39018 9.5926C7.38318 9.22027 7.4541 8.85059 7.59841 8.50726C7.74272 8.16392 7.95722 7.85451 8.22817 7.59886C8.3092 7.50752 8.40821 7.43388 8.519 7.38251C8.6298 7.33115 8.75001 7.30318 8.87211 7.30034C8.95489 7.30034 9.03557 7.30646 9.11414 7.31242C9.18871 7.31807 9.26139 7.32358 9.33217 7.32358C9.35078 7.32358 9.37024 7.32215 9.39047 7.32067C9.52821 7.31056 9.70108 7.29788 9.87727 7.71652C9.94944 7.88801 10.0574 8.14818 10.1691 8.41726C10.37 8.9015 10.5829 9.41461 10.6208 9.49164C10.6594 9.55384 10.6814 9.62493 10.6846 9.69808C10.6878 9.77123 10.6721 9.84396 10.6389 9.90928C10.5948 10.0076 10.5443 10.1029 10.4878 10.1947C10.4785 10.2069 10.4693 10.2192 10.4599 10.2316C10.4414 10.2561 10.4223 10.2815 10.4006 10.3095C10.3482 10.3673 10.2969 10.4288 10.2462 10.4897C10.1758 10.5743 10.1065 10.6574 10.0372 10.7271C9.91797 10.847 9.79441 10.9748 9.93105 11.2145C10.2923 11.8276 10.7433 12.3833 11.2691 12.8632C11.8396 13.3687 12.4948 13.77 13.2045 14.0486C13.448 14.1677 13.5883 14.1452 13.7278 13.989C13.8674 13.8328 14.3311 13.2961 14.4917 13.0564C14.6523 12.8167 14.8122 12.8581 15.0339 12.9366Z" fill="#242424"/>
</svg>
