<svg width="24" height="24" viewBox="0 0 24 24" fill="none" xmlns="http://www.w3.org/2000/svg">
<path fill-rule="evenodd" clip-rule="evenodd" d="M12.0005 19.7101L11.9223 19.71C11.8713 19.7099 11.7964 19.7096 11.7004 19.7092C11.5085 19.7083 11.2325 19.7065 10.896 19.7029C10.2231 19.6957 9.3077 19.6813 8.33815 19.6525C7.36899 19.6237 6.34373 19.5804 5.45176 19.5154C4.56678 19.4508 3.79189 19.3635 3.33598 19.2416L3.33459 19.2412C2.83194 19.1037 2.37326 18.8388 2.00286 18.4723C1.63246 18.1057 1.36287 17.6498 1.22013 17.1486C1.21787 17.1406 1.21601 17.1326 1.21454 17.1245C0.894658 15.3511 0.73934 13.5519 0.750568 11.7499C0.741816 9.96141 0.897124 8.17587 1.21454 6.41572C1.21553 6.41024 1.2167 6.40479 1.21805 6.39939C1.34752 5.88212 1.61121 5.40818 1.98247 5.02543C2.35373 4.64269 2.81943 4.3647 3.33251 4.21953L3.33597 4.21855C3.79189 4.09662 4.56678 4.00937 5.45176 3.94482C6.34373 3.87976 7.36899 3.8365 8.33815 3.8077C9.3077 3.77889 10.2231 3.76449 10.896 3.75729C11.2325 3.75369 11.5085 3.75189 11.7004 3.75099C11.7964 3.75054 11.8713 3.75032 11.9223 3.7502L12.0005 3.75009L12.0788 3.75019L12.3006 3.75091C12.4925 3.75174 12.7684 3.75338 13.1049 3.75667C13.7777 3.76324 14.693 3.77638 15.6624 3.80268C16.6314 3.82897 17.6563 3.86846 18.5478 3.92783C19.4329 3.98677 20.2059 4.06638 20.6599 4.17723L20.6686 4.17953C21.1817 4.3247 21.6474 4.60269 22.0187 4.98543C22.3899 5.36818 22.6536 5.84212 22.7831 6.35939C22.7838 6.36225 22.7845 6.36513 22.7851 6.36802C22.7856 6.37057 22.7861 6.37314 22.7866 6.37571C23.1065 8.14915 23.2618 9.94835 23.2506 11.7504C23.2569 13.5255 23.1016 15.2975 22.7866 17.0445C22.7856 17.0499 22.7844 17.0554 22.7831 17.0608C22.6536 17.5781 22.3899 18.052 22.0187 18.4347C21.6474 18.8175 21.1817 19.0955 20.6686 19.2406L20.6652 19.2416C20.2093 19.3635 19.4344 19.4508 18.5494 19.5154C17.6574 19.5804 16.6322 19.6237 15.663 19.6525C14.6934 19.6813 13.778 19.6957 13.1051 19.7029C12.7686 19.7065 12.4926 19.7083 12.3007 19.7092C12.2048 19.7096 12.1298 19.7099 12.0788 19.71L12.0005 19.7101ZM15.5005 11.7501L9.75049 15.0201V8.48007L15.5005 11.7501Z" fill="#242424"/>
</svg>
