<svg width="24" height="24" viewBox="0 0 24 24" fill="none" xmlns="http://www.w3.org/2000/svg">
<path fill-rule="evenodd" clip-rule="evenodd" d="M12 2.75C6.89137 2.75 2.75 6.89137 2.75 12C2.75 17.1086 6.89137 21.25 12 21.25C17.1086 21.25 21.25 17.1086 21.25 12C21.25 6.89137 17.1086 2.75 12 2.75ZM1.25 12C1.25 6.06294 6.06294 1.25 12 1.25C17.9371 1.25 22.75 6.06294 22.75 12C22.75 17.9371 17.9371 22.75 12 22.75C6.06294 22.75 1.25 17.9371 1.25 12Z" fill="#D71921"/>
<path fill-rule="evenodd" clip-rule="evenodd" d="M1.25 12C1.25 11.5858 1.58579 11.25 2 11.25H22C22.4142 11.25 22.75 11.5858 22.75 12C22.75 12.4142 22.4142 12.75 22 12.75H2C1.58579 12.75 1.25 12.4142 1.25 12Z" fill="#D71921"/>
<path fill-rule="evenodd" clip-rule="evenodd" d="M12 1.25C12.2107 1.25 12.4117 1.33862 12.5538 1.49418C15.1777 4.36677 16.6688 8.09465 16.7498 11.9844C16.7501 11.9948 16.7501 12.0052 16.7498 12.0156C16.6688 15.9054 15.1777 19.6332 12.5538 22.5058C12.4117 22.6614 12.2107 22.75 12 22.75C11.7893 22.75 11.5883 22.6614 11.4462 22.5058C8.82235 19.6332 7.3312 15.9054 7.25016 12.0156C7.24995 12.0052 7.24995 11.9948 7.25016 11.9844C7.3312 8.09465 8.82235 4.36677 11.4462 1.49418C11.5883 1.33862 11.7893 1.25 12 1.25ZM8.75017 12C8.82108 15.2371 9.96923 18.3496 12 20.8513C14.0308 18.3496 15.1789 15.2371 15.2498 12C15.1789 8.76295 14.0308 5.65035 12 3.14873C9.96923 5.65035 8.82108 8.76295 8.75017 12Z" fill="#D71921"/>
</svg>
