<svg width="41" height="40" viewBox="0 0 41 40" fill="none" xmlns="http://www.w3.org/2000/svg">
<path fill-rule="evenodd" clip-rule="evenodd" d="M20.2487 4.58398C11.7343 4.58398 4.83203 11.4863 4.83203 20.0007C4.83203 28.515 11.7343 35.4173 20.2487 35.4173C28.7631 35.4173 35.6654 28.515 35.6654 20.0007C35.6654 11.4863 28.7631 4.58398 20.2487 4.58398ZM2.33203 20.0007C2.33203 10.1055 10.3536 2.08398 20.2487 2.08398C30.1438 2.08398 38.1654 10.1055 38.1654 20.0007C38.1654 29.8958 30.1438 37.9173 20.2487 37.9173C10.3536 37.9173 2.33203 29.8958 2.33203 20.0007Z" fill="#D71921"/>
<path fill-rule="evenodd" clip-rule="evenodd" d="M2.33203 20C2.33203 19.3096 2.89168 18.75 3.58203 18.75H36.9154C37.6057 18.75 38.1654 19.3096 38.1654 20C38.1654 20.6904 37.6057 21.25 36.9154 21.25H3.58203C2.89168 21.25 2.33203 20.6904 2.33203 20Z" fill="#D71921"/>
<path fill-rule="evenodd" clip-rule="evenodd" d="M20.2487 2.08398C20.5998 2.08398 20.9348 2.23169 21.1716 2.49096C25.5448 7.2786 28.03 13.4917 28.1651 19.9746C28.1655 19.992 28.1655 20.0093 28.1651 20.0267C28.03 26.5096 25.5448 32.7227 21.1716 37.5103C20.9348 37.7696 20.5998 37.9173 20.2487 37.9173C19.8975 37.9173 19.5626 37.7696 19.3258 37.5103C14.9526 32.7227 12.4674 26.5096 12.3323 20.0267C12.3319 20.0093 12.3319 19.992 12.3323 19.9746C12.4674 13.4917 14.9526 7.2786 19.3258 2.49096C19.5626 2.23169 19.8975 2.08398 20.2487 2.08398ZM14.8323 20.0007C14.9505 25.3957 16.8641 30.5834 20.2487 34.7528C23.6333 30.5834 25.5469 25.3957 25.6651 20.0007C25.5469 14.6056 23.6333 9.41791 20.2487 5.24853C16.8641 9.41791 14.9505 14.6056 14.8323 20.0007Z" fill="#D71921"/>
</svg>
