<svg width="16" height="16" viewBox="0 0 16 16" fill="none" xmlns="http://www.w3.org/2000/svg">
<path fill-rule="evenodd" clip-rule="evenodd" d="M7.69303 0.938667C7.87358 0.798236 8.12642 0.798236 8.30697 0.938667L14.307 5.60533C14.4288 5.70006 14.5 5.84572 14.5 6.00001V13.3333C14.5 13.8196 14.3068 14.2859 13.963 14.6297C13.6192 14.9735 13.1529 15.1667 12.6667 15.1667H3.33333C2.8471 15.1667 2.38079 14.9735 2.03697 14.6297C1.69315 14.2859 1.5 13.8196 1.5 13.3333V6.00001C1.5 5.84572 1.57124 5.70006 1.69303 5.60533L7.69303 0.938667ZM2.5 6.24455V13.3333C2.5 13.5544 2.5878 13.7663 2.74408 13.9226C2.90036 14.0789 3.11232 14.1667 3.33333 14.1667H12.6667C12.8877 14.1667 13.0996 14.0789 13.2559 13.9226C13.4122 13.7663 13.5 13.5544 13.5 13.3333V6.24455L8 1.96677L2.5 6.24455Z" fill="#E2E2E2"/>
<path fill-rule="evenodd" clip-rule="evenodd" d="M5.5 8C5.5 7.72386 5.72386 7.5 6 7.5H10C10.2761 7.5 10.5 7.72386 10.5 8V14.6667C10.5 14.9428 10.2761 15.1667 10 15.1667C9.72386 15.1667 9.5 14.9428 9.5 14.6667V8.5H6.5V14.6667C6.5 14.9428 6.27614 15.1667 6 15.1667C5.72386 15.1667 5.5 14.9428 5.5 14.6667V8Z" fill="#E2E2E2"/>
</svg>
