<svg width="40" height="40" viewBox="0 0 40 40" fill="none" xmlns="http://www.w3.org/2000/svg">
<path fill-rule="evenodd" clip-rule="evenodd" d="M2.73475 26.0687C4.21942 24.5841 6.23305 23.75 8.33268 23.75H21.666C23.7656 23.75 25.7793 24.5841 27.2639 26.0687C28.7486 27.5534 29.5827 29.567 29.5827 31.6667V35C29.5827 35.6904 29.023 36.25 28.3327 36.25C27.6423 36.25 27.0827 35.6904 27.0827 35V31.6667C27.0827 30.2301 26.512 28.8523 25.4962 27.8365C24.4804 26.8207 23.1026 26.25 21.666 26.25H8.33268C6.89609 26.25 5.51834 26.8207 4.50252 27.8365C3.4867 28.8523 2.91602 30.2301 2.91602 31.6667V35C2.91602 35.6904 2.35637 36.25 1.66602 36.25C0.97566 36.25 0.416016 35.6904 0.416016 35V31.6667C0.416016 29.567 1.25009 27.5534 2.73475 26.0687Z" fill="#D71921"/>
<path fill-rule="evenodd" clip-rule="evenodd" d="M15.0007 6.25C12.0091 6.25 9.58398 8.67512 9.58398 11.6667C9.58398 14.6582 12.0091 17.0833 15.0007 17.0833C17.9922 17.0833 20.4173 14.6582 20.4173 11.6667C20.4173 8.67512 17.9922 6.25 15.0007 6.25ZM7.08398 11.6667C7.08398 7.29441 10.6284 3.75 15.0007 3.75C19.3729 3.75 22.9173 7.29441 22.9173 11.6667C22.9173 16.0389 19.3729 19.5833 15.0007 19.5833C10.6284 19.5833 7.08398 16.0389 7.08398 11.6667Z" fill="#D71921"/>
<path fill-rule="evenodd" clip-rule="evenodd" d="M32.124 24.9046C32.2966 24.2362 32.9784 23.8342 33.6468 24.0068C35.3452 24.4453 36.8498 25.4355 37.9245 26.8218C38.9992 28.2081 39.583 29.9121 39.5843 31.6662L39.5843 35.0004C39.5843 35.6908 39.0246 36.2504 38.3343 36.2504C37.6439 36.2504 37.0843 35.6908 37.0843 35.0004V31.668C37.0843 31.6679 37.0843 31.6682 37.0843 31.668C37.0833 30.468 36.6838 29.3019 35.9486 28.3535C35.2133 27.4049 34.1838 26.7274 33.0218 26.4274C32.3534 26.2548 31.9514 25.573 32.124 24.9046Z" fill="#D71921"/>
<path fill-rule="evenodd" clip-rule="evenodd" d="M25.4554 4.90705C25.6266 4.23827 26.3076 3.83492 26.9764 4.00616C28.6793 4.44217 30.1886 5.43255 31.2665 6.82115C32.3443 8.20975 32.9294 9.91759 32.9294 11.6754C32.9294 13.4333 32.3443 15.1411 31.2665 16.5297C30.1886 17.9183 28.6793 18.9087 26.9764 19.3447C26.3076 19.5159 25.6266 19.1126 25.4554 18.4438C25.2841 17.775 25.6875 17.0941 26.3563 16.9228C27.5214 16.6245 28.5541 15.9469 29.2916 14.9968C30.0291 14.0467 30.4294 12.8782 30.4294 11.6754C30.4294 10.4727 30.0291 9.30418 29.2916 8.35408C28.5541 7.40398 27.5214 6.72636 26.3563 6.42804C25.6875 6.2568 25.2841 5.57583 25.4554 4.90705Z" fill="#D71921"/>
</svg>
