<svg width="40" height="40" viewBox="0 0 40 40" fill="none" xmlns="http://www.w3.org/2000/svg">
<path fill-rule="evenodd" clip-rule="evenodd" d="M6.66732 6.25C5.51672 6.25 4.58398 7.18274 4.58398 8.33333V25C4.58398 26.1506 5.51672 27.0833 6.66732 27.0833H33.334C34.4846 27.0833 35.4173 26.1506 35.4173 25V8.33333C35.4173 7.18274 34.4846 6.25 33.334 6.25H6.66732ZM2.08398 8.33333C2.08398 5.80203 4.13601 3.75 6.66732 3.75H33.334C35.8653 3.75 37.9173 5.80203 37.9173 8.33333V25C37.9173 27.5313 35.8653 29.5833 33.334 29.5833H6.66732C4.13601 29.5833 2.08398 27.5313 2.08398 25V8.33333Z" fill="#D71921"/>
<path fill-rule="evenodd" clip-rule="evenodd" d="M12.084 35C12.084 34.3096 12.6436 33.75 13.334 33.75H26.6673C27.3577 33.75 27.9173 34.3096 27.9173 35C27.9173 35.6904 27.3577 36.25 26.6673 36.25H13.334C12.6436 36.25 12.084 35.6904 12.084 35Z" fill="#D71921"/>
<path fill-rule="evenodd" clip-rule="evenodd" d="M20 27.084C20.6904 27.084 21.25 27.6436 21.25 28.334V35.0007C21.25 35.691 20.6904 36.2507 20 36.2507C19.3096 36.2507 18.75 35.691 18.75 35.0007V28.334C18.75 27.6436 19.3096 27.084 20 27.084Z" fill="#D71921"/>
</svg>
