<svg width="40" height="40" viewBox="0 0 40 40" fill="none" xmlns="http://www.w3.org/2000/svg">
<path fill-rule="evenodd" clip-rule="evenodd" d="M2.08398 5C2.08398 4.30964 2.64363 3.75 3.33398 3.75H13.334C15.4336 3.75 17.4472 4.58407 18.9319 6.06874C20.4166 7.5534 21.2507 9.56704 21.2507 11.6667V35C21.2507 35.6904 20.691 36.25 20.0007 36.25C19.3103 36.25 18.7507 35.6904 18.7507 35C18.7507 34.0054 18.3556 33.0516 17.6523 32.3483C16.949 31.6451 15.9952 31.25 15.0007 31.25H3.33398C2.64363 31.25 2.08398 30.6904 2.08398 30V5ZM18.7507 30V11.6667C18.7507 10.2301 18.18 8.85233 17.1641 7.8365C16.1483 6.82068 14.7706 6.25 13.334 6.25H4.58398V28.75H15.0007C16.3608 28.75 17.6752 29.1933 18.7507 30Z" fill="#D71921"/>
<path fill-rule="evenodd" clip-rule="evenodd" d="M21.0687 6.06874C22.5534 4.58407 24.567 3.75 26.6667 3.75H36.6667C37.357 3.75 37.9167 4.30964 37.9167 5V30C37.9167 30.6904 37.357 31.25 36.6667 31.25H25C24.0054 31.25 23.0516 31.6451 22.3483 32.3483C21.6451 33.0516 21.25 34.0054 21.25 35C21.25 35.6904 20.6904 36.25 20 36.25C19.3096 36.25 18.75 35.6904 18.75 35V11.6667C18.75 9.56704 19.5841 7.5534 21.0687 6.06874ZM21.25 30C22.3255 29.1933 23.6399 28.75 25 28.75H35.4167V6.25H26.6667C25.2301 6.25 23.8523 6.82068 22.8365 7.8365C21.8207 8.85233 21.25 10.2301 21.25 11.6667V30Z" fill="#D71921"/>
</svg>
