<svg width="40" height="40" viewBox="0 0 40 40" fill="none" xmlns="http://www.w3.org/2000/svg">
<path fill-rule="evenodd" clip-rule="evenodd" d="M6.66683 6.25C5.51624 6.25 4.5835 7.18274 4.5835 8.33333V25C4.5835 26.1506 5.51624 27.0833 6.66683 27.0833H33.3335C34.4841 27.0833 35.4168 26.1506 35.4168 25V8.33333C35.4168 7.18274 34.4841 6.25 33.3335 6.25H6.66683ZM2.0835 8.33333C2.0835 5.80203 4.13552 3.75 6.66683 3.75H33.3335C35.8648 3.75 37.9168 5.80203 37.9168 8.33333V25C37.9168 27.5313 35.8648 29.5833 33.3335 29.5833H6.66683C4.13552 29.5833 2.0835 27.5313 2.0835 25V8.33333Z" fill="#D71921"/>
<path fill-rule="evenodd" clip-rule="evenodd" d="M12.0835 35C12.0835 34.3096 12.6431 33.75 13.3335 33.75H26.6668C27.3572 33.75 27.9168 34.3096 27.9168 35C27.9168 35.6904 27.3572 36.25 26.6668 36.25H13.3335C12.6431 36.25 12.0835 35.6904 12.0835 35Z" fill="#D71921"/>
<path fill-rule="evenodd" clip-rule="evenodd" d="M20 27.084C20.6904 27.084 21.25 27.6436 21.25 28.334V35.0007C21.25 35.691 20.6904 36.2507 20 36.2507C19.3096 36.2507 18.75 35.691 18.75 35.0007V28.334C18.75 27.6436 19.3096 27.084 20 27.084Z" fill="#D71921"/>
</svg>
