<svg width="40" height="40" viewBox="0 0 40 40" fill="none" xmlns="http://www.w3.org/2000/svg">
<path fill-rule="evenodd" clip-rule="evenodd" d="M6.75893 3.42641C7.61847 2.56687 8.78426 2.08398 9.99984 2.08398H21.6665C21.998 2.08398 22.316 2.21568 22.5504 2.4501L34.2171 14.1168C34.4515 14.3512 34.5832 14.6691 34.5832 15.0007V33.334C34.5832 34.5496 34.1003 35.7153 33.2407 36.5749C32.3812 37.4344 31.2154 37.9173 29.9998 37.9173H9.99984C8.78426 37.9173 7.61847 37.4344 6.75893 36.5749C5.89939 35.7153 5.4165 34.5496 5.4165 33.334V6.66732C5.4165 5.45174 5.89939 4.28595 6.75893 3.42641ZM9.99984 4.58398C9.4473 4.58398 8.9174 4.80348 8.5267 5.19418C8.136 5.58488 7.9165 6.11478 7.9165 6.66732V33.334C7.9165 33.8865 8.136 34.4164 8.5267 34.8071C8.9174 35.1978 9.4473 35.4173 9.99984 35.4173H29.9998C30.5524 35.4173 31.0823 35.1978 31.473 34.8071C31.8637 34.4164 32.0832 33.8865 32.0832 33.334V15.5184L21.1487 4.58398H9.99984Z" fill="#D71921"/>
<path fill-rule="evenodd" clip-rule="evenodd" d="M21.6665 2.08398C22.3569 2.08398 22.9165 2.64363 22.9165 3.33398V13.7507H33.3332C34.0235 13.7507 34.5832 14.3103 34.5832 15.0007C34.5832 15.691 34.0235 16.2507 33.3332 16.2507H21.6665C20.9761 16.2507 20.4165 15.691 20.4165 15.0007V3.33398C20.4165 2.64363 20.9761 2.08398 21.6665 2.08398Z" fill="#D71921"/>
</svg>
