<svg width="40" height="40" viewBox="0 0 40 40" fill="none" xmlns="http://www.w3.org/2000/svg">
<path fill-rule="evenodd" clip-rule="evenodd" d="M20 0.416016C20.6904 0.416016 21.25 0.97566 21.25 1.66602V38.3327C21.25 39.023 20.6904 39.5827 20 39.5827C19.3096 39.5827 18.75 39.023 18.75 38.3327V1.66602C18.75 0.97566 19.3096 0.416016 20 0.416016Z" fill="#D71921"/>
<path fill-rule="evenodd" clip-rule="evenodd" d="M10.8247 9.15865C12.153 7.83026 13.9547 7.08398 15.8333 7.08398H28.3333C29.0237 7.08398 29.5833 7.64363 29.5833 8.33398C29.5833 9.02434 29.0237 9.58398 28.3333 9.58398H15.8333C14.6178 9.58398 13.452 10.0669 12.5924 10.9264C11.7329 11.786 11.25 12.9517 11.25 14.1673C11.25 15.3829 11.7329 16.5487 12.5924 17.4082C13.452 18.2678 14.6178 18.7507 15.8333 18.7507H24.1667C26.0453 18.7507 27.847 19.4969 29.1753 20.8253C30.5037 22.1537 31.25 23.9554 31.25 25.834C31.25 27.7126 30.5037 29.5143 29.1753 30.8427C27.847 32.171 26.0453 32.9173 24.1667 32.9173H10C9.30964 32.9173 8.75 32.3577 8.75 31.6673C8.75 30.977 9.30964 30.4173 10 30.4173H24.1667C25.3822 30.4173 26.548 29.9344 27.4076 29.0749C28.2671 28.2154 28.75 27.0496 28.75 25.834C28.75 24.6184 28.2671 23.4526 27.4076 22.5931C26.548 21.7335 25.3822 21.2507 24.1667 21.2507H15.8333C13.9547 21.2507 12.153 20.5044 10.8247 19.176C9.49628 17.8476 8.75 16.0459 8.75 14.1673C8.75 12.2887 9.49628 10.487 10.8247 9.15865Z" fill="#D71921"/>
</svg>
