<svg width="24" height="24" viewBox="0 0 24 24" fill="none" xmlns="http://www.w3.org/2000/svg">
<g id="System Icon">
<path id="Vector (Stroke)" fill-rule="evenodd" clip-rule="evenodd" d="M15.7648 3.54494C13.9427 2.7331 11.9071 2.53198 9.96148 2.97157C8.01583 3.41116 6.2644 4.46792 4.96841 5.98423C3.67242 7.50054 2.9013 9.39516 2.77005 11.3855C2.63881 13.3759 3.15447 15.3554 4.24014 17.0287C5.32581 18.7021 6.92331 19.9797 8.79439 20.6709C10.6655 21.3622 12.7099 21.4301 14.6227 20.8645C16.5355 20.299 18.2143 19.1302 19.4086 17.5326C20.603 15.935 21.2489 13.9941 21.25 11.9994V11.0799C21.25 10.6657 21.5858 10.3299 22 10.3299C22.4142 10.3299 22.75 10.6657 22.75 11.0799V11.9999C22.7487 14.318 21.998 16.5741 20.61 18.4308C19.222 20.2874 17.271 21.6457 15.048 22.303C12.825 22.9603 10.4491 22.8813 8.27456 22.078C6.10006 21.2746 4.2435 19.7899 2.98178 17.8451C1.72006 15.9004 1.12078 13.6 1.2733 11.2868C1.42583 8.9737 2.322 6.77184 3.82815 5.00965C5.3343 3.24745 7.36974 2.01933 9.6309 1.50845C11.8921 0.997572 14.2578 1.23131 16.3753 2.17479C16.7536 2.34338 16.9237 2.78676 16.7551 3.16512C16.5865 3.54347 16.1431 3.71352 15.7648 3.54494Z" fill="#D71921"/>
<path id="Vector (Stroke)_2" fill-rule="evenodd" clip-rule="evenodd" d="M22.5301 3.4694C22.8231 3.76215 22.8233 4.23703 22.5306 4.53007L12.5306 14.5401C12.39 14.6808 12.1992 14.76 12.0002 14.76C11.8012 14.76 11.6104 14.681 11.4697 14.5403L8.46967 11.5403C8.17678 11.2474 8.17678 10.7726 8.46967 10.4797C8.76256 10.1868 9.23744 10.1868 9.53033 10.4797L11.9997 12.9491L21.4694 3.46993C21.7622 3.1769 22.237 3.17666 22.5301 3.4694Z" fill="#D71921"/>
</g>
</svg>
