<svg width="20" height="20" viewBox="0 0 20 20" fill="none" xmlns="http://www.w3.org/2000/svg">
<path fill-rule="evenodd" clip-rule="evenodd" d="M10 1.45833C8.17664 1.45833 6.42795 2.18266 5.13864 3.47197C3.84933 4.76129 3.125 6.50997 3.125 8.33333C3.125 10.9988 4.85359 13.5547 6.70372 15.5077C7.61601 16.4706 8.53042 17.2583 9.21745 17.8053C9.53603 18.059 9.80463 18.2601 10 18.4021C10.1954 18.2601 10.464 18.059 10.7825 17.8053C11.4696 17.2583 12.384 16.4706 13.2963 15.5077C15.1464 13.5547 16.875 10.9988 16.875 8.33333C16.875 6.50997 16.1507 4.76129 14.8614 3.47197C13.572 2.18266 11.8234 1.45833 10 1.45833ZM10 19.1667C9.65331 19.6867 9.65315 19.6866 9.65295 19.6865L9.65085 19.685L9.64566 19.6816L9.62732 19.6692C9.6116 19.6585 9.58898 19.643 9.55992 19.6229C9.50179 19.5826 9.41786 19.5237 9.3118 19.4471C9.09975 19.294 8.7989 19.0699 8.4388 18.7832C7.71958 18.2105 6.75899 17.3835 5.79628 16.3673C3.89641 14.3619 1.875 11.5012 1.875 8.33333C1.875 6.17845 2.73102 4.11182 4.25476 2.58809C5.77849 1.06436 7.84512 0.208332 10 0.208332C12.1549 0.208332 14.2215 1.06436 15.7452 2.58809C17.269 4.11182 18.125 6.17845 18.125 8.33333C18.125 11.5012 16.1036 14.3619 14.2037 16.3673C13.241 17.3835 12.2804 18.2105 11.5612 18.7832C11.2011 19.0699 10.9002 19.294 10.6882 19.4471C10.5821 19.5237 10.4982 19.5826 10.4401 19.6229C10.411 19.643 10.3884 19.6585 10.3727 19.6692L10.3543 19.6816L10.3492 19.685L10.3476 19.6861C10.3474 19.6862 10.3467 19.6867 10 19.1667ZM10 19.1667L10.3467 19.6867C10.1368 19.8267 9.86289 19.8264 9.65295 19.6865L10 19.1667Z" fill="#B7B7B7"/>
<path fill-rule="evenodd" clip-rule="evenodd" d="M10 6.45833C8.96447 6.45833 8.125 7.2978 8.125 8.33333C8.125 9.36887 8.96447 10.2083 10 10.2083C11.0355 10.2083 11.875 9.36887 11.875 8.33333C11.875 7.2978 11.0355 6.45833 10 6.45833ZM6.875 8.33333C6.875 6.60744 8.27411 5.20833 10 5.20833C11.7259 5.20833 13.125 6.60744 13.125 8.33333C13.125 10.0592 11.7259 11.4583 10 11.4583C8.27411 11.4583 6.875 10.0592 6.875 8.33333Z" fill="#B7B7B7"/>
</svg>
