<svg width="24" height="25" viewBox="0 0 24 25" fill="none" xmlns="http://www.w3.org/2000/svg">
<path fill-rule="evenodd" clip-rule="evenodd" d="M4.64124 16.1412C5.53204 15.2504 6.74022 14.75 8 14.75H16C17.2598 14.75 18.468 15.2504 19.3588 16.1412C20.2496 17.032 20.75 18.2402 20.75 19.5V21.5C20.75 21.9142 20.4142 22.25 20 22.25C19.5858 22.25 19.25 21.9142 19.25 21.5V19.5C19.25 18.638 18.9076 17.8114 18.2981 17.2019C17.6886 16.5924 16.862 16.25 16 16.25H8C7.13805 16.25 6.3114 16.5924 5.7019 17.2019C5.09241 17.8114 4.75 18.638 4.75 19.5V21.5C4.75 21.9142 4.41421 22.25 4 22.25C3.58579 22.25 3.25 21.9142 3.25 21.5V19.5C3.25 18.2402 3.75044 17.032 4.64124 16.1412Z" fill="white"/>
<path fill-rule="evenodd" clip-rule="evenodd" d="M12 4.25C10.2051 4.25 8.75 5.70507 8.75 7.5C8.75 9.29493 10.2051 10.75 12 10.75C13.7949 10.75 15.25 9.29493 15.25 7.5C15.25 5.70507 13.7949 4.25 12 4.25ZM7.25 7.5C7.25 4.87665 9.37665 2.75 12 2.75C14.6234 2.75 16.75 4.87665 16.75 7.5C16.75 10.1234 14.6234 12.25 12 12.25C9.37665 12.25 7.25 10.1234 7.25 7.5Z" fill="white"/>
</svg>
