<svg xmlns="http://www.w3.org/2000/svg" id="logo" width="100%" height="100%" viewBox="0 0 991.335 392.147" class="js-change-svg ts-component brand-logo replaced-svg">
  <g id="Layer_1" data-name="Layer 1" transform="translate(0.001 -0.002)">
    <path id="Union_2" data-name="Union 2" d="M14234,4055.149v-107.46h991.335v107.46Zm903.5-37.083c3.668,2.839,10.3,4.792,16.87,4.792v-.011c11.834,0,17.573-5.915,17.573-12.843,0-15.212-24.084-9.942-24.084-17.573,0-2.606,2.189-4.738,7.871-4.738a23.369,23.369,0,0,1,11.479,3.252l2.965-7.26c-3.848-2.43-9.174-3.672-14.387-3.672-11.776,0-17.458,5.861-17.458,12.9,0,15.391,24.088,10.065,24.088,17.818,0,2.549-2.3,4.444-7.989,4.444a24.391,24.391,0,0,1-13.668-4.325Zm-572.738-.015c3.676,2.839,10.306,4.8,16.874,4.8,11.834,0,17.573-5.915,17.573-12.843,0-15.212-24.084-9.942-24.084-17.573,0-2.606,2.189-4.738,7.871-4.738a23.38,23.38,0,0,1,11.479,3.252l2.961-7.275c-3.844-2.43-9.17-3.672-14.382-3.672-11.777,0-17.459,5.862-17.459,12.9,0,15.387,24.088,10.061,24.088,17.814,0,2.549-2.308,4.444-7.989,4.444a24.343,24.343,0,0,1-13.668-4.325Zm-277.362,0c3.672,2.839,10.3,4.8,16.873,4.8,11.83,0,17.573-5.915,17.573-12.843,0-15.212-24.088-9.942-24.088-17.573,0-2.606,2.193-4.738,7.872-4.738a23.379,23.379,0,0,1,11.481,3.252l2.962-7.275c-3.844-2.43-9.175-3.672-14.387-3.672-11.772,0-17.454,5.862-17.454,12.9,0,15.387,24.084,10.061,24.084,17.814,0,2.549-2.3,4.444-7.986,4.444a24.37,24.37,0,0,1-13.672-4.325Zm733.837,4.1,9-.015-.122-41.424h-7.871l-15.266,25.739-15.5-25.739h-7.929v41.432h8.991v-24.325l12.128,19.938h4.325l12.193-20.469Zm-178.095,0h32.069v-7.707h-22.54v-9.591h19.25V3997.4h-19.25v-9h21.776v-7.688h-31.306Zm-141.937-33.614h13.255v33.614h9.588v-33.614h13.255l0-7.825H14701.2Zm-262.689,18.819v14.78h9.587v-14.673l16.1-26.74h-9.407l-11.069,18.4-11.066-18.4h-10.183ZM14234,3912.6V3663h991.335v249.6Zm13.836-13.832H15211.5V3676.834h-963.666Zm309.013-110.964c0-31.833,24.436-54.614,57.315-54.614,18.257,0,33.488,6.637,43.445,18.712l-15.688,14.478c-7.089-8.146-15.991-12.373-26.545-12.373-19.763,0-33.794,13.878-33.794,33.793s14.031,33.782,33.794,33.782c10.554,0,19.456-4.215,26.545-12.51l15.688,14.474c-9.965,12.216-25.188,18.857-43.594,18.857C14581.283,3842.412,14556.848,3819.635,14556.848,3787.809ZM15119,3840.6l-25.49-36.659-25.043,36.659h-28.051l39.063-53.7L15042.374,3735h27.76l24.286,34.252,23.836-34.24h26.4l-36.828,50.984,39.369,54.607Zm-160.362,0v-37.714l-40.885-67.877h25.945l28.207,46.93,28.207-46.911h23.984l-41.026,68.164V3840.6Zm-91.617,0-52.646-64.106V3840.6h-24.13V3735.01h20.21l52.5,64.117V3735.01h24.13V3840.6Zm-521.111,0v-85.676h-33.786V3735.01h92.034v19.915h-33.809V3840.6Zm94-.011V3735.01h79.8V3754.6H14464.2v22.93h49.028v19.01H14464.2v24.436l57.473.015v19.594Z" transform="translate(-14234 -3663)" fill="#fff"></path>
    <rect id="Rectangle_572" data-name="Rectangle 572" width="47.964" height="41.632" transform="translate(466.274 72.01)" fill="#f5b746"></rect>
    <rect id="Rectangle_573" data-name="Rectangle 573" width="47.964" height="43.289" transform="translate(466.274 134.309)" fill="#f5b746"></rect>
  </g>
</svg>