<svg width="24" height="24" viewBox="0 0 24 24" fill="#ffffff" xmlns="http://www.w3.org/2000/svg">
<path fill-rule="evenodd" clip-rule="evenodd" d="M12 2.75C6.89137 2.75 2.75 6.89137 2.75 12C2.75 17.1086 6.89137 21.25 12 21.25C17.1086 21.25 21.25 17.1086 21.25 12C21.25 6.89137 17.1086 2.75 12 2.75ZM1.25 12C1.25 6.06294 6.06294 1.25 12 1.25C17.9371 1.25 22.75 6.06294 22.75 12C22.75 17.9371 17.9371 22.75 12 22.75C6.06294 22.75 1.25 17.9371 1.25 12Z" fill="#ffffff"/>
<path d="M14.2883 7C13.8953 7 13.5766 7.28391 13.5766 7.6341V16.3659C13.5766 16.7161 13.8953 17 14.2883 17C14.6814 17 15 16.7161 15 16.3659V7.6341C15 7.28391 14.6814 7 14.2883 7Z" fill="#ffffff"/>
<path d="M9.71168 7C9.31864 7 9 7.28391 9 7.6341V16.3659C9 16.7161 9.31864 17 9.71168 17C10.1047 17 10.4234 16.7161 10.4234 16.3659V7.6341C10.4234 7.28391 10.1047 7 9.71168 7Z" fill="#ffffff"/>
</svg>
