<svg width="24" height="25" viewBox="0 0 24 25" fill="none" xmlns="http://www.w3.org/2000/svg">
<path fill-rule="evenodd" clip-rule="evenodd" d="M11 4.25C6.99594 4.25 3.75 7.49594 3.75 11.5C3.75 15.5041 6.99594 18.75 11 18.75C15.0041 18.75 18.25 15.5041 18.25 11.5C18.25 7.49594 15.0041 4.25 11 4.25ZM2.25 11.5C2.25 6.66751 6.16751 2.75 11 2.75C15.8325 2.75 19.75 6.66751 19.75 11.5C19.75 16.3325 15.8325 20.25 11 20.25C6.16751 20.25 2.25 16.3325 2.25 11.5Z" fill="white"/>
<path fill-rule="evenodd" clip-rule="evenodd" d="M16.1197 16.6197C16.4126 16.3268 16.8874 16.3268 17.1803 16.6197L21.5303 20.9697C21.8232 21.2626 21.8232 21.7375 21.5303 22.0304C21.2374 22.3232 20.7626 22.3232 20.4697 22.0304L16.1197 17.6804C15.8268 17.3875 15.8268 16.9126 16.1197 16.6197Z" fill="white"/>
</svg>
