<svg width="40" height="40" viewBox="0 0 40 40" fill="none" xmlns="http://www.w3.org/2000/svg">
<g id="System Icon">
<path id="Vector (Stroke)" fill-rule="evenodd" clip-rule="evenodd" d="M21.583 4.88351C23.3904 3.13783 25.8112 2.17189 28.3239 2.19372C30.8366 2.21556 33.2403 3.22342 35.0171 5.00025C36.7939 6.77708 37.8018 9.1807 37.8236 11.6934C37.8454 14.2061 36.8795 16.6269 35.1338 18.4343L35.1187 18.45L30.1188 23.4497C29.1472 24.4216 27.978 25.1731 26.6905 25.6534C25.403 26.1337 24.0272 26.3315 22.6565 26.2333C21.2858 26.1352 19.9523 25.7433 18.7463 25.0845C17.5404 24.4256 16.4902 23.5151 15.6671 22.4147C15.2536 21.8619 15.3665 21.0785 15.9193 20.665C16.4721 20.2515 17.2555 20.3644 17.669 20.9172C18.2774 21.7306 19.0536 22.4036 19.9449 22.8906C20.8363 23.3776 21.822 23.6671 22.8351 23.7397C23.8482 23.8123 24.8651 23.6661 25.8167 23.3111C26.7684 22.9561 27.6326 22.4006 28.3507 21.6822L33.3428 16.6901C34.6286 15.3549 35.3398 13.5689 35.3237 11.7151C35.3076 9.85791 34.5626 8.08133 33.2493 6.76802C31.936 5.45471 30.1594 4.70977 28.3022 4.69363C26.4479 4.67751 24.6613 5.38922 23.326 6.67571L20.466 9.51908C19.9764 10.0058 19.185 10.0035 18.6983 9.51393C18.2115 9.02435 18.2138 8.2329 18.7034 7.74617L21.583 4.88351Z" fill="#444444"/>
<path id="Vector (Stroke)_2" fill-rule="evenodd" clip-rule="evenodd" d="M13.3093 14.3466C14.5968 13.8663 15.9726 13.6685 17.3433 13.7667C18.7139 13.8648 20.0475 14.2566 21.2534 14.9155C22.4594 15.5744 23.5095 16.4849 24.3327 17.5853C24.7462 18.1381 24.6332 18.9215 24.0804 19.335C23.5276 19.7485 22.7443 19.6356 22.3308 19.0828C21.7224 18.2694 20.9462 17.5964 20.0548 17.1094C19.1635 16.6224 18.1778 16.3328 17.1647 16.2603C16.1515 16.1877 15.1347 16.3339 14.183 16.6889C13.2314 17.0439 12.3672 17.5994 11.6491 18.3178L6.65691 23.3099C5.3712 24.6451 4.65994 26.4311 4.67605 28.2849C4.69219 30.1421 5.43713 31.9187 6.75044 33.232C8.06375 34.5453 9.84034 35.2902 11.6976 35.3064C13.5513 35.3225 15.3374 34.6112 16.6725 33.3255L19.5145 30.4835C20.0026 29.9953 20.7941 29.9953 21.2823 30.4835C21.7704 30.9716 21.7704 31.7631 21.2823 32.2512L18.4169 35.1166C16.6095 36.8623 14.1886 37.8281 11.6758 37.8063C9.16312 37.7844 6.7595 36.7766 4.98267 34.9997C3.20585 33.2229 2.19798 30.8193 2.17614 28.3066C2.15431 25.7939 3.12025 23.3731 4.86594 21.5656L4.88103 21.55L9.881 16.5503C9.88106 16.5503 9.88095 16.5504 9.881 16.5503C10.8525 15.5785 12.0218 14.8268 13.3093 14.3466Z" fill="#444444"/>
</g>
</svg>
