<svg width="72" height="73" viewBox="0 0 72 73" fill="none" xmlns="http://www.w3.org/2000/svg">
<g id="System Icon">
<path id="Vector (Stroke)" fill-rule="evenodd" clip-rule="evenodd" d="M36 8.48438C20.6741 8.48438 8.25 20.9085 8.25 36.2344C8.25 51.5603 20.6741 63.9844 36 63.9844C51.3259 63.9844 63.75 51.5603 63.75 36.2344C63.75 20.9085 51.3259 8.48438 36 8.48438ZM3.75 36.2344C3.75 18.4232 18.1888 3.98438 36 3.98438C53.8112 3.98438 68.25 18.4232 68.25 36.2344C68.25 54.0456 53.8112 68.4844 36 68.4844C18.1888 68.4844 3.75 54.0456 3.75 36.2344Z" fill="white"/>
<path id="Vector (Stroke)_2" fill-rule="evenodd" clip-rule="evenodd" d="M28.9383 22.2506C29.6699 21.8591 30.5576 21.902 31.2481 22.3623L49.2481 34.3623C49.874 34.7796 50.25 35.4821 50.25 36.2344C50.25 36.9867 49.874 37.6892 49.2481 38.1065L31.2481 50.1065C30.5576 50.5668 29.6699 50.6097 28.9383 50.2181C28.2067 49.8266 27.75 49.0642 27.75 48.2344V24.2344C27.75 23.4046 28.2067 22.6422 28.9383 22.2506ZM32.25 28.4385V44.0302L43.9438 36.2344L32.25 28.4385Z" fill="white"/>
</g>
</svg>
