<svg width="40" height="40" viewBox="0 0 40 40" fill="none" xmlns="http://www.w3.org/2000/svg">
<path fill-rule="evenodd" clip-rule="evenodd" d="M19.9987 2.08398C20.4745 2.08398 20.909 2.35407 21.1196 2.7807L25.9791 12.6254L36.8462 14.2138C37.3169 14.2826 37.7077 14.6126 37.8545 15.0651C38.0012 15.5176 37.8783 16.0142 37.5376 16.3461L29.6752 24.004L31.5307 34.8227C31.6112 35.2917 31.4184 35.7656 31.0334 36.0453C30.6484 36.325 30.1381 36.3618 29.7169 36.1403L19.9987 31.0296L10.2805 36.1403C9.8594 36.3618 9.34904 36.325 8.96407 36.0453C8.57909 35.7656 8.38629 35.2917 8.46672 34.8227L10.3222 24.004L2.4599 16.3461C2.11913 16.0142 1.99629 15.5176 2.14301 15.0651C2.28973 14.6126 2.68058 14.2826 3.15128 14.2138L14.0184 12.6254L18.8778 2.7807C19.0884 2.35407 19.523 2.08398 19.9987 2.08398ZM19.9987 6.15805L15.9696 14.3206C15.7877 14.6892 15.4362 14.9447 15.0295 15.0042L6.01758 16.3214L12.5376 22.6719C12.8324 22.959 12.967 23.373 12.8974 23.7786L11.359 32.7486L19.4169 28.511C19.7811 28.3194 20.2163 28.3194 20.5805 28.511L28.6385 32.7486L27.1001 23.7786C27.0305 23.373 27.1651 22.959 27.4599 22.6719L33.9799 16.3214L24.9679 15.0042C24.5613 14.9447 24.2098 14.6892 24.0279 14.3206L19.9987 6.15805Z" fill="#D71921"/>
</svg>
